<svg width="25" height="25" viewBox="0 0 25 25" fill="none" xmlns="http://www.w3.org/2000/svg">
<mask id="mask0_2_2278" style="mask-type:luminance" maskUnits="userSpaceOnUse" x="0" y="0" width="25" height="25">
<path d="M24.5 0.160156H0.5V24.1602H24.5V0.160156Z" fill="white"/>
</mask>
<g mask="url(#mask0_2_2278)">
<path d="M12.5 15.1602C14.1569 15.1602 15.5 13.8171 15.5 12.1602C15.5 10.5033 14.1569 9.16016 12.5 9.16016C10.8431 9.16016 9.5 10.5033 9.5 12.1602C9.5 13.8171 10.8431 15.1602 12.5 15.1602Z" fill="#505050"/>
<path d="M18.5 0.160156H6.5C4.9087 0.160156 3.38258 0.792297 2.25736 1.91752C1.13214 3.04274 0.5 4.56886 0.5 6.16016V18.1602C0.5 19.7515 1.13214 21.2776 2.25736 22.4028C3.38258 23.5281 4.9087 24.1602 6.5 24.1602H18.5C20.0913 24.1602 21.6174 23.5281 22.7426 22.4028C23.8679 21.2776 24.5 19.7515 24.5 18.1602V6.16016C24.5 4.56886 23.8679 3.04274 22.7426 1.91752C21.6174 0.792297 20.0913 0.160156 18.5 0.160156ZM8.645 21.9102L7.7075 20.6727L7.4225 20.9877V21.9102H6.185V18.1602H7.4225V19.5177L8.6525 18.1602H10.025L8.525 19.8027L10.1 21.9102H8.645ZM17.12 12.1602C17.12 13.0739 16.849 13.9672 16.3414 14.7269C15.8337 15.4867 15.1122 16.0788 14.268 16.4285C13.4238 16.7782 12.4949 16.8697 11.5987 16.6914C10.7025 16.5132 9.87928 16.0732 9.23317 15.427C8.58705 14.7809 8.14704 13.9577 7.96877 13.0615C7.79051 12.1653 7.882 11.2364 8.23168 10.3922C8.58135 9.54797 9.17351 8.82642 9.93327 8.31877C10.693 7.81112 11.5863 7.54016 12.5 7.54016C13.7253 7.54016 14.9004 8.02691 15.7668 8.89333C16.6333 9.75974 17.12 10.9349 17.12 12.1602ZM16.25 7.35266C16.2456 7.13721 16.3057 6.92535 16.4226 6.74433C16.5396 6.56332 16.708 6.42143 16.9062 6.33691C17.1044 6.2524 17.3234 6.22912 17.535 6.27007C17.7466 6.31102 17.9411 6.41433 18.0934 6.56671C18.2458 6.7191 18.3491 6.91358 18.3901 7.12516C18.431 7.33673 18.4078 7.55572 18.3232 7.75395C18.2387 7.95219 18.0968 8.12061 17.9158 8.23755C17.7348 8.35449 17.523 8.4146 17.3075 8.41016C17.0288 8.40441 16.7632 8.29115 16.5661 8.09406C16.369 7.89698 16.2557 7.63132 16.25 7.35266ZM11.5325 21.9102H10.25V18.1602H11.51L11.5325 21.9102ZM15.83 21.0327C15.6481 21.3179 15.3877 21.5445 15.08 21.6852C14.7409 21.8386 14.3722 21.9154 14 21.9102H12.14V18.1602H14C14.3806 18.1505 14.7582 18.2302 15.1025 18.3927C15.4142 18.5234 15.6766 18.7491 15.8525 19.0377C16.0379 19.334 16.1318 19.6783 16.1225 20.0277C16.1268 20.3866 16.0251 20.7389 15.83 21.0402V21.0327ZM19.4975 21.3702C19.348 21.5764 19.1423 21.7352 18.905 21.8277C18.6019 21.9465 18.2779 22.0027 17.9525 21.9927C17.6479 21.9994 17.3434 21.9717 17.045 21.9102C16.7812 21.8565 16.5279 21.7602 16.295 21.6252L16.7 20.7027C16.8891 20.8114 17.0905 20.897 17.3 20.9577C17.505 21.016 17.7169 21.0463 17.93 21.0477C18.0573 21.057 18.1851 21.0391 18.305 20.9952C18.3374 20.9856 18.3657 20.9658 18.386 20.9388C18.4063 20.9118 18.4173 20.879 18.4175 20.8452C18.4175 20.7627 18.3725 20.7102 18.2675 20.6652C18.1115 20.609 17.9509 20.5663 17.7875 20.5377C17.5338 20.4911 17.2833 20.4284 17.0375 20.3502C16.8447 20.2773 16.6723 20.1589 16.535 20.0052C16.3836 19.8254 16.3059 19.595 16.3175 19.3602C16.3153 19.1292 16.3862 18.9035 16.52 18.7152C16.665 18.5095 16.869 18.3526 17.105 18.2652C17.4101 18.1436 17.7366 18.0849 18.065 18.0927C18.3177 18.0921 18.5696 18.1224 18.815 18.1827C19.0462 18.2277 19.2689 18.3086 19.475 18.4227L19.0925 19.3377C18.7726 19.162 18.4149 19.0668 18.05 19.0602C17.7275 19.0602 17.57 19.1352 17.57 19.2927C17.5721 19.3329 17.587 19.3715 17.6127 19.4025C17.6384 19.4336 17.6734 19.4556 17.7125 19.4652C17.867 19.5163 18.0249 19.5564 18.185 19.5852C18.4403 19.6241 18.6914 19.6869 18.935 19.7727C19.1299 19.8383 19.3053 19.9518 19.445 20.1027C19.5991 20.2809 19.6772 20.5125 19.6625 20.7477C19.6746 20.9698 19.6169 21.1901 19.4975 21.3777V21.3702ZM21.4475 15.9102C21.4253 16.3521 21.3651 16.7912 21.2675 17.2227C21.2212 17.4149 21.1055 17.5831 20.9428 17.6953C20.78 17.8075 20.5816 17.8556 20.3855 17.8305C20.1894 17.8055 20.0095 17.7089 19.8803 17.5594C19.751 17.4098 19.6815 17.2178 19.685 17.0202C19.6901 16.9589 19.7027 16.8984 19.7225 16.8402C19.7909 16.509 19.8335 16.173 19.85 15.8352C19.895 14.8827 19.9025 14.6052 19.9025 12.1977C19.9025 9.79016 19.9025 9.51266 19.85 8.56016C19.7375 6.13766 18.5975 4.98266 16.16 4.87016C15.2075 4.82516 14.9225 4.81766 12.5225 4.81766C10.1225 4.81766 9.8375 4.81766 8.885 4.87016C6.4475 4.98266 5.3075 6.13766 5.195 8.56016C5.15 9.51266 5.1425 9.79766 5.1425 12.1977C5.1425 14.5977 5.1425 14.8827 5.195 15.8352C5.21151 16.173 5.25414 16.509 5.3225 16.8402C5.32973 16.9 5.32973 16.9604 5.3225 17.0202C5.32603 17.2178 5.2565 17.4098 5.12723 17.5594C4.99796 17.7089 4.81805 17.8055 4.62199 17.8305C4.42592 17.8556 4.22749 17.8075 4.06474 17.6953C3.90198 17.5831 3.78635 17.4149 3.74 17.2227C3.63989 16.7914 3.57716 16.3523 3.5525 15.9102C3.5 14.9127 3.5 14.6052 3.5 12.1602C3.5 9.71516 3.5 9.40766 3.5525 8.44766C3.7025 5.18516 5.5175 3.36266 8.8025 3.19766C9.7475 3.16016 10.055 3.16016 12.5 3.16016C14.945 3.16016 15.2525 3.16016 16.2125 3.21266C19.4825 3.36266 21.2975 5.18516 21.4625 8.46266C21.5 9.40766 21.5 9.71516 21.5 12.1602C21.5 14.6052 21.5 14.9127 21.4475 15.9102Z" fill="#505050"/>
<path d="M13.9325 19.158H13.4V20.9355H13.9325C14.1696 20.9453 14.4012 20.8619 14.5775 20.703C14.711 20.5787 14.8032 20.4165 14.8417 20.2383C14.8803 20.06 14.8633 19.8742 14.793 19.7059C14.7227 19.5376 14.6026 19.3949 14.4487 19.2969C14.2949 19.1989 14.1147 19.1505 13.9325 19.158Z" fill="#505050"/>
</g>
</svg>
