<svg width="91" height="19" viewBox="0 0 91 19" fill="none" xmlns="http://www.w3.org/2000/svg">
<mask id="mask0_2_2404" style="mask-type:luminance" maskUnits="userSpaceOnUse" x="0" y="0" width="91" height="19">
<path d="M90.5 0.160156H0.5V18.1602H90.5V0.160156Z" fill="white"/>
</mask>
<g mask="url(#mask0_2_2404)">
<path d="M0.49768 12.1917C1.21029 12.7666 2.85427 13.517 4.70089 13.9056C7.86404 14.569 11.5452 14.3546 11.564 11.724V9.63877H9.01818V11.9103C7.37017 12.055 5.90469 11.2147 5.8094 9.62805C5.75169 8.65783 6.25361 7.87388 7.02393 7.43031C8.35253 6.66646 10.7494 6.73079 12.6121 7.73183C16.5107 9.82504 16.2101 14.7392 12.7785 16.6649C8.60483 19.0073 2.01014 17.3309 0.496338 16.6689V12.1917H0.49768Z" fill="#949494"/>
<path d="M14.753 5.85641C10.7068 3.84227 6.3909 4.39438 4.65969 5.77467C2.72986 7.31175 2.69229 9.8579 4.0947 11.1002C0.12634 9.75606 0.0954738 6.22628 1.1758 4.52035C2.93788 1.73834 8.95013 0.414335 14.753 2.64959V5.85641Z" fill="#949494"/>
<path d="M23.1109 0.314453H22.5634C22.5634 0.314453 21.7971 1.55671 21.6602 1.77917C21.5247 1.55671 20.7624 0.314453 20.7624 0.314453H20.0256C20.0256 0.314453 21.3032 2.38756 21.3314 2.43447V3.97556H21.985V2.38622C22.0132 2.34066 23.2841 0.315793 23.2841 0.315793H23.1109V0.314453Z" fill="#949494"/>
<path d="M23.2895 1.51531C23.0587 1.77797 22.9419 2.13711 22.9419 2.58202C22.9419 3.02692 23.0587 3.38607 23.2895 3.64604C23.5243 3.91138 23.8437 4.04539 24.2369 4.04539C24.6302 4.04539 24.9455 3.91138 25.1804 3.64604C25.4126 3.38473 25.5307 3.02692 25.5307 2.58068C25.5307 2.13443 25.4126 1.77663 25.1804 1.51397C24.9455 1.24863 24.6275 1.11328 24.2369 1.11328C23.8464 1.11328 23.5243 1.24863 23.2895 1.51397V1.51531ZM23.7632 3.25742C23.6465 3.10867 23.5888 2.88086 23.5888 2.58068C23.5888 2.2805 23.6465 2.03928 23.7619 1.89455C23.8746 1.75518 24.0289 1.68684 24.2369 1.68684C24.445 1.68684 24.5953 1.75518 24.7093 1.89455C24.8261 2.03794 24.8851 2.26844 24.8851 2.57934C24.8851 2.89024 24.8248 3.11001 24.708 3.25876C24.5939 3.40081 24.4396 3.47049 24.2369 3.47049C24.0343 3.47049 23.8773 3.40081 23.7632 3.25608V3.25742Z" fill="#949494"/>
<path d="M28.2775 1.18457H27.7447V3.16388C27.6428 3.23892 27.5367 3.30592 27.424 3.35551C27.3019 3.40911 27.1892 3.43591 27.0885 3.43591C26.9462 3.43591 26.8711 3.41581 26.8349 3.39973C26.7852 3.37695 26.7449 3.34077 26.7127 3.28716C26.6792 3.23356 26.6564 3.16522 26.6456 3.08481L26.6268 2.76051V1.18457H25.9988V2.96554C25.9988 3.31128 26.0847 3.5793 26.2538 3.76289C26.4242 3.94916 26.6644 4.04431 26.9664 4.04431C27.1435 4.04431 27.3073 4.01081 27.4549 3.94246C27.5488 3.89824 27.6481 3.82588 27.7447 3.76021V3.97329H28.3728V1.18457H28.2775Z" fill="#949494"/>
<path d="M29.8996 1.28141C29.8016 1.3243 29.6889 1.39398 29.5695 1.47707V1.18493H28.9414V3.97364H29.5695V2.08814C29.6701 2.01042 29.7748 1.94207 29.8808 1.89115C29.9962 1.83755 30.113 1.81075 30.2338 1.81075L30.4418 1.82013L30.6216 1.85229L30.7343 1.87239L30.7625 1.75982V1.22513L30.5237 1.19029L30.3465 1.18359C30.1949 1.18359 30.0446 1.21575 29.8996 1.27873V1.28141Z" fill="#949494"/>
<path d="M32.6893 0.314453H32.594V3.97556H33.9213C34.1695 3.97556 34.3789 3.95278 34.5426 3.90722C34.7104 3.86166 34.866 3.78259 35.0056 3.67136C35.1277 3.57756 35.2244 3.45695 35.2968 3.31222C35.368 3.16749 35.4042 2.99998 35.4042 2.81371C35.4042 2.55105 35.3277 2.32994 35.1787 2.15573C35.0673 2.02574 34.9144 1.94132 34.7439 1.87833C34.8298 1.81669 34.9076 1.747 34.9667 1.66526C35.0633 1.53259 35.1116 1.37178 35.1116 1.18819C35.1116 1.02738 35.0794 0.885329 35.0123 0.766061C34.9479 0.646794 34.8405 0.546288 34.6969 0.469903C34.5694 0.405579 34.4379 0.364036 34.3037 0.343935L33.7213 0.314453H32.692H32.6893ZM33.7025 0.90677L34.0796 0.921511C34.1695 0.929551 34.246 0.952333 34.3078 0.987175C34.352 1.01264 34.3843 1.0448 34.4044 1.085C34.4245 1.12922 34.4366 1.18551 34.4366 1.25385C34.4366 1.34096 34.4232 1.416 34.3977 1.47765C34.3735 1.53259 34.3359 1.57681 34.2796 1.613C34.2178 1.65186 34.1494 1.67866 34.0756 1.69206L33.7481 1.71082H33.2449V0.90677H33.7012H33.7025ZM33.8756 2.3018L34.2541 2.31922C34.348 2.32994 34.4285 2.35138 34.4916 2.38354C34.5842 2.43045 34.6459 2.48673 34.6782 2.54837C34.713 2.61538 34.7305 2.71186 34.7305 2.83381C34.7305 2.93968 34.7144 3.0241 34.6808 3.08441C34.6486 3.14739 34.5949 3.20367 34.5198 3.2546C34.4514 3.3015 34.3561 3.335 34.242 3.35242L33.7602 3.38325H33.2449V2.3018H33.8729H33.8756Z" fill="#949494"/>
<path d="M36.1382 1.5181C35.8913 1.78478 35.7651 2.14794 35.7651 2.59419C35.7651 3.04044 35.8967 3.40628 36.157 3.65688C36.416 3.90613 36.7784 4.03344 37.2333 4.03344C37.4078 4.03344 37.5782 4.01066 37.7419 3.96644L38.2693 3.78552L38.264 3.71986V3.02838L38.0815 3.17177C38.0157 3.23207 37.8963 3.29505 37.7299 3.35938C37.5648 3.42504 37.397 3.45854 37.2347 3.45854C37.1125 3.45854 36.9998 3.44112 36.9005 3.40762C36.8039 3.37546 36.7193 3.32588 36.6495 3.26155C36.5771 3.19589 36.5194 3.11012 36.4764 3.0056C36.4442 2.92653 36.4361 2.82469 36.4281 2.72418H38.3177V2.38916C38.3177 1.98713 38.213 1.67087 38.0063 1.44842C37.7983 1.22329 37.5017 1.10938 37.1259 1.10938C36.7207 1.10938 36.3892 1.24607 36.1396 1.51542L36.1382 1.5181ZM37.1045 1.66015C37.3098 1.66015 37.4547 1.71242 37.55 1.81828C37.6292 1.90807 37.6695 2.04074 37.6856 2.19753H36.4375C36.4684 2.06084 36.5207 1.93889 36.6187 1.84106C36.7394 1.71912 36.8978 1.66015 37.1058 1.66015H37.1045Z" fill="#949494"/>
<path d="M39.472 1.18149C39.3258 1.22705 39.2023 1.29271 39.107 1.37312C39.0064 1.45486 38.9299 1.55269 38.8802 1.6599C38.8305 1.76844 38.805 1.88369 38.805 2.00296C38.805 2.19593 38.8601 2.3621 38.9688 2.49611C39.0761 2.63012 39.256 2.73062 39.5029 2.79495L39.7834 2.85659L40.0209 2.90349C40.2195 2.94772 40.292 2.99462 40.3175 3.0174C40.3551 3.0509 40.3739 3.10451 40.3739 3.18089C40.3739 3.2814 40.3376 3.35108 40.2585 3.39664C40.1645 3.45025 40.0303 3.47705 39.8572 3.47705C39.7149 3.47705 39.5633 3.44757 39.4063 3.3886C39.2479 3.32964 39.1016 3.24923 38.9728 3.15007L38.8185 3.0308L38.7957 3.22511V3.78259L38.848 3.80135L39.2694 3.95948C39.4371 4.00772 39.6237 4.03184 39.825 4.03184C40.1833 4.03184 40.4745 3.94876 40.6866 3.78259C40.9067 3.6124 41.018 3.38994 41.018 3.12193C41.018 2.90751 40.9536 2.73062 40.8275 2.59795C40.704 2.47065 40.5309 2.38086 40.3095 2.33128L39.7914 2.22407C39.6599 2.19325 39.5687 2.15439 39.515 2.1115C39.4707 2.07398 39.4492 2.01904 39.4492 1.94131C39.4492 1.85153 39.4855 1.79256 39.566 1.74566C39.6613 1.69072 39.7807 1.66392 39.9243 1.66392C40.0679 1.66392 40.2115 1.69072 40.3605 1.74566C40.5108 1.80194 40.6396 1.86895 40.7416 1.94667L40.8959 2.06326L40.9201 1.87029V1.34096L40.8677 1.31415C40.7563 1.25653 40.6154 1.20695 40.4477 1.16674C40.284 1.12789 40.1162 1.10645 39.9538 1.10645C39.7767 1.10645 39.6143 1.13057 39.4734 1.17478L39.472 1.18149Z" fill="#949494"/>
<path d="M42.1465 0.4375H41.6151V1.18393H41.3198V1.74006H41.6151V3.03324C41.6151 3.37496 41.6942 3.62958 41.8513 3.79039C42.0096 3.95254 42.2378 4.03429 42.5303 4.03429L42.8054 4.01284L43.1651 3.94316L43.1597 3.86544V3.35084L43.0081 3.38837L42.847 3.43393L42.6444 3.46207C42.5089 3.46207 42.4404 3.44331 42.4055 3.42723C42.3639 3.40713 42.3304 3.37496 42.3062 3.33074C42.2753 3.27312 42.2566 3.21415 42.2512 3.15117L42.2431 2.83625V1.73872H43.1597V1.18259H42.2431V0.4375H42.1465Z" fill="#949494"/>
<path d="M46.0869 0.367179C45.8668 0.452944 45.6749 0.576232 45.5179 0.737042C45.3569 0.901872 45.2321 1.1069 45.1462 1.34544C45.063 1.5813 45.02 1.85199 45.02 2.14815C45.02 2.46039 45.0643 2.73913 45.1515 2.979C45.2401 3.21888 45.3649 3.42123 45.5233 3.57802C45.683 3.73749 45.8762 3.8581 46.0963 3.93448C46.3124 4.00819 46.5539 4.04571 46.8143 4.04571L47.1995 4.01221L47.5189 3.93448L47.802 3.82728L48.0892 3.69729V3.63431L48.0906 2.99911H47.9255L47.8987 3.02323C47.7376 3.16528 47.5645 3.27516 47.382 3.34485C47.1995 3.41587 46.9995 3.45205 46.7915 3.45205C46.6439 3.45205 46.5003 3.42659 46.3661 3.37567C46.2345 3.32609 46.1191 3.24702 46.0212 3.1425C45.9259 3.04333 45.8467 2.90932 45.7863 2.74449C45.7259 2.581 45.6951 2.37999 45.6951 2.14815C45.6951 1.91632 45.7219 1.72737 45.7783 1.55986C45.8319 1.39503 45.9111 1.257 46.0077 1.15113C46.1097 1.04258 46.2238 0.960835 46.35 0.909912C46.4788 0.857649 46.6264 0.832187 46.7888 0.832187C46.9901 0.832187 47.1807 0.86569 47.3592 0.934034C47.5363 1.00238 47.7188 1.11227 47.9 1.2637L47.9268 1.28648H48.0933V0.584272L48.0396 0.55747C47.8061 0.440883 47.5913 0.357798 47.4008 0.310895C47.2062 0.263992 47.0116 0.241211 46.8197 0.241211C46.5553 0.241211 46.3097 0.282753 46.0896 0.365838L46.0869 0.367179Z" fill="#949494"/>
<path d="M49.4962 1.28141C49.3982 1.3243 49.2855 1.39398 49.1674 1.47707V1.18493H48.5393V3.97364H49.1674V2.08814C49.268 2.01176 49.3714 1.94207 49.4774 1.89115C49.5915 1.83755 49.7109 1.81075 49.8317 1.81075L50.0397 1.82013L50.2209 1.85229L50.3336 1.87239L50.3618 1.75982V1.22513L50.1229 1.19029L49.9457 1.18359C49.7941 1.18359 49.6438 1.21575 49.4989 1.27873L49.4962 1.28141Z" fill="#949494"/>
<path d="M50.9356 1.5181C50.6886 1.78478 50.5625 2.14794 50.5625 2.59419C50.5625 3.04044 50.694 3.40628 50.9544 3.65688C51.2147 3.90613 51.5771 4.03344 52.0307 4.03344C52.2051 4.03344 52.3756 4.01066 52.5393 3.96644L53.0667 3.78552L53.0613 3.71986V3.02838L52.8788 3.17177C52.8131 3.23207 52.695 3.29505 52.5272 3.35938C52.3622 3.42504 52.1944 3.45854 52.0307 3.45854C51.9085 3.45854 51.7972 3.44112 51.6978 3.40762C51.6012 3.37546 51.5153 3.32588 51.4469 3.26155C51.3731 3.19455 51.314 3.11012 51.2738 3.0056C51.2416 2.92787 51.2335 2.82603 51.2241 2.72418H53.115V2.38916C53.115 1.98713 53.0103 1.67087 52.8037 1.44842C52.597 1.22329 52.3004 1.10938 51.9233 1.10938C51.518 1.10938 51.1852 1.24607 50.9356 1.51542V1.5181ZM51.9032 1.66015C52.1072 1.66015 52.2521 1.71242 52.3474 1.81828C52.4266 1.90807 52.4668 2.04074 52.4829 2.19753H51.2335C51.2644 2.06084 51.3167 1.93889 51.4147 1.84106C51.5355 1.71912 51.6938 1.66015 51.9018 1.66015H51.9032Z" fill="#949494"/>
<path d="M55.9585 0.162109H55.4257V1.24624C55.3224 1.2047 55.211 1.16048 55.211 1.16048C55.0983 1.12965 54.9667 1.11357 54.8205 1.11357C54.6567 1.11357 54.4957 1.14707 54.3427 1.21408C54.1884 1.28376 54.0528 1.38159 53.9388 1.50756C53.8233 1.63754 53.7307 1.79567 53.665 1.97793C53.5979 2.15884 53.563 2.36789 53.563 2.59838C53.563 3.04061 53.6623 3.39305 53.8582 3.64767C54.0595 3.91033 54.336 4.04299 54.6782 4.04299C54.85 4.04299 55.0151 4.00949 55.164 3.94517C55.2553 3.90497 55.3398 3.83796 55.4257 3.77766V3.97331H56.0538V0.162109H55.9585ZM54.3521 3.23894C54.2568 3.0969 54.2085 2.87846 54.2085 2.59302C54.2085 2.30759 54.2702 2.08513 54.3937 1.93236C54.5145 1.78629 54.6782 1.71393 54.8956 1.71393L55.1828 1.74207C55.1828 1.74207 55.3385 1.79567 55.4257 1.82516V3.184C55.3331 3.25234 55.2338 3.31533 55.1251 3.36223C55.0124 3.41047 54.8956 3.4346 54.7829 3.4346C54.5802 3.4346 54.4393 3.37161 54.3521 3.23894Z" fill="#949494"/>
<path d="M57.328 0.296875H56.7429V0.941455H57.4247V0.296875H57.3294H57.328ZM57.2999 1.18535H56.7684V3.97407H57.3951V1.18535H57.2985H57.2999Z" fill="#949494"/>
<path d="M58.6946 0.4375H58.1632V1.18393H57.8679V1.74006H58.1632V3.03324C58.1632 3.37496 58.2423 3.63092 58.398 3.79039C58.555 3.95254 58.7832 4.03429 59.0784 4.03429L59.3535 4.01284L59.7132 3.94316L59.7078 3.86544V3.35084L59.5535 3.38837L59.3938 3.43393L59.1898 3.46207C59.0529 3.46207 58.9845 3.44331 58.9523 3.42723C58.9107 3.40713 58.8758 3.37496 58.853 3.33074C58.8208 3.27312 58.8033 3.21415 58.7979 3.15117L58.7885 2.83625V1.73872H59.7078V1.18259H58.7885V0.4375H58.6933H58.6946Z" fill="#949494"/>
<path d="M61.8023 0.314453H61.707V3.97556H62.3606V2.6864H62.727C62.9833 2.6864 63.202 2.65424 63.3765 2.59126C63.5537 2.52693 63.708 2.42777 63.8368 2.29912C63.9428 2.19325 64.0247 2.06862 64.0824 1.92524C64.1401 1.78319 64.171 1.6264 64.171 1.46157C64.171 1.24447 64.1307 1.06088 64.0502 0.91347C63.9697 0.767401 63.857 0.645454 63.712 0.548968C63.5899 0.467223 63.4503 0.408259 63.296 0.372077C63.1443 0.334554 62.9591 0.315793 62.7444 0.315793H61.8023V0.314453ZM62.7229 0.90677L63.0638 0.936252C63.147 0.955013 63.2235 0.984495 63.2879 1.02604C63.3591 1.0716 63.4101 1.12922 63.4436 1.20159C63.4798 1.27663 63.4986 1.36776 63.4986 1.47229C63.4986 1.56207 63.4852 1.64382 63.4584 1.71484C63.4329 1.78319 63.3886 1.85019 63.3242 1.91451C63.2638 1.97348 63.1819 2.01904 63.0813 2.04852C62.9726 2.07934 62.829 2.09409 62.6532 2.09409H62.3606V0.90677H62.7216H62.7229Z" fill="#949494"/>
<path d="M65.112 1.15812L64.6571 1.25192L64.6638 1.3283V1.89918L64.8168 1.86032L65.2395 1.73167L65.6019 1.68879L65.8609 1.70755L66.0488 1.76785C66.0998 1.79599 66.136 1.83485 66.1642 1.8831C66.187 1.93 66.1977 1.99432 66.2004 2.06535C66.0568 2.07607 65.575 2.11493 65.575 2.11493C65.3456 2.14173 65.1443 2.19132 64.9778 2.26368C64.8047 2.34141 64.6692 2.44995 64.5766 2.58664C64.4813 2.72333 64.4316 2.9029 64.4316 3.11999C64.4316 3.38801 64.5242 3.61181 64.7068 3.78468C64.8866 3.95621 65.1094 4.04465 65.3684 4.04465L65.724 4.00579L65.9938 3.9093L66.1991 3.78736L66.2045 3.78334V3.97497H66.8312V2.11091C66.8312 1.93134 66.803 1.77589 66.7466 1.64992C66.6889 1.51994 66.6017 1.41407 66.493 1.33366C66.3816 1.25326 66.2514 1.19563 66.1038 1.16213C65.9642 1.13132 65.7951 1.11523 65.6046 1.11523L65.1107 1.15946L65.112 1.15812ZM65.1778 3.35317C65.1094 3.29689 65.0772 3.20978 65.0772 3.08917C65.0772 2.98331 65.1067 2.9029 65.163 2.84662C65.2288 2.78363 65.3174 2.73539 65.4274 2.70323L65.8367 2.6389C65.8367 2.6389 66.0662 2.62148 66.2031 2.61076V3.1803C66.1454 3.21514 65.9052 3.36255 65.9052 3.36255C65.7911 3.41615 65.6623 3.44295 65.5254 3.44295C65.3643 3.44295 65.2476 3.41213 65.1765 3.35183L65.1778 3.35317Z" fill="#949494"/>
<path d="M68.3605 1.28141C68.2626 1.3243 68.1498 1.39398 68.0304 1.47707V1.18493H67.4023V3.97364H68.0304V2.08814C68.1311 2.01042 68.2357 1.94207 68.3418 1.89115C68.4558 1.83755 68.5739 1.81075 68.6947 1.81075L68.9027 1.82013L69.1966 1.87239L69.2235 1.75982V1.22513L68.9846 1.19029L68.8074 1.18359C68.6558 1.18359 68.5055 1.21575 68.3605 1.27873V1.28141Z" fill="#949494"/>
<path d="M70.3384 0.4375H69.8056V1.18393H69.5117V1.74006H69.8056V3.03324C69.8056 3.37496 69.8848 3.62958 70.0418 3.79039C70.1988 3.95254 70.4283 4.03429 70.7209 4.03429L70.9973 4.01284L71.3557 3.94316L71.3503 3.86544V3.35084L71.1986 3.38837L71.0363 3.43393L70.8336 3.46207C70.6981 3.46207 70.6296 3.44331 70.5961 3.42723C70.5545 3.40713 70.5209 3.37496 70.4968 3.33074C70.4646 3.27446 70.4471 3.21549 70.4417 3.15117L70.4324 2.83625V1.73872H71.3503V1.18259H70.4324V0.4375H70.3371H70.3384Z" fill="#949494"/>
<path d="M72.8379 1.21708C72.7372 1.2613 72.6419 1.33366 72.5466 1.39799V1.18491H71.9199V3.97363H72.5466V1.99432C72.65 1.92062 72.756 1.85228 72.8687 1.80269C72.9868 1.74909 73.1009 1.72229 73.2069 1.72229C73.3129 1.72229 73.3935 1.73569 73.4552 1.76249C73.5116 1.78661 73.5518 1.82145 73.58 1.8697C73.6122 1.91928 73.6323 1.98762 73.6444 2.07875L73.6659 2.40171V3.97497H74.294V2.194C74.294 1.85362 74.2108 1.58694 74.047 1.40067C73.8806 1.21172 73.6391 1.11523 73.329 1.11523C73.1626 1.11523 72.9976 1.15008 72.8392 1.21842L72.8379 1.21708Z" fill="#949494"/>
<path d="M75.1103 1.52067C74.862 1.78869 74.7358 2.15051 74.7358 2.59676C74.7358 3.043 74.8674 3.40751 75.1277 3.65944C75.3881 3.9087 75.7491 4.03601 76.204 4.03601C76.3785 4.03601 76.5489 4.01323 76.7126 3.969L77.2401 3.78809L77.2347 3.72243V3.03228L77.0522 3.17433C76.9837 3.23464 76.867 3.29762 76.7006 3.36328C76.5355 3.42895 76.3677 3.46245 76.2054 3.46245C76.0832 3.46245 75.9705 3.44503 75.8698 3.41153C75.7732 3.37937 75.6887 3.32978 75.6189 3.26546C75.5464 3.19845 75.4887 3.11403 75.4471 3.0095C75.4149 2.93044 75.4055 2.82859 75.3988 2.72809H77.2884V2.39306C77.2884 1.99104 77.1837 1.67478 76.977 1.45233C76.7703 1.22719 76.4724 1.11328 76.0967 1.11328C75.6914 1.11328 75.3585 1.24997 75.1103 1.51933V1.52067ZM76.0765 1.66272C76.2819 1.66272 76.4268 1.71498 76.5221 1.82085C76.6026 1.91063 76.6415 2.0433 76.6563 2.20009H75.4082C75.4377 2.0634 75.4914 1.9428 75.5894 1.84363C75.7102 1.72168 75.8685 1.66272 76.0765 1.66272Z" fill="#949494"/>
<path d="M78.6793 1.28141C78.58 1.3243 78.4686 1.39398 78.3505 1.47707V1.18493H77.7224V3.97364H78.3505V2.08814C78.4511 2.01176 78.5545 1.94207 78.6605 1.89115C78.7732 1.83889 78.8927 1.81075 79.0134 1.81075L79.2228 1.82013L79.4026 1.85229L79.5154 1.87239L79.5435 1.75982V1.22513L79.3047 1.19029L79.1275 1.18359C78.9745 1.18359 78.8256 1.21575 78.6793 1.27873V1.28141Z" fill="#949494"/>
<path d="M44.0335 6.79102H42.1829V17.3429H44.0335V6.79102Z" fill="#949494"/>
<path d="M35.9677 12.8484H37.8895V15.6425L37.8613 15.6572C37.3782 15.9118 36.3529 16.0753 35.7571 16.078C35.7517 16.078 35.749 16.078 35.749 16.078C33.485 16.0793 32.2987 14.2515 32.2946 12.0122V12.0068C32.2973 9.31725 34.1587 8.05623 36.4522 8.05489C37.3728 8.05489 38.4035 8.21704 39.3443 8.51454V7.1423C38.374 6.818 37.1648 6.63708 36.0603 6.63574C32.2383 6.63976 30.0454 8.94203 30.04 12.0805C30.0414 15.2619 32.2477 17.4945 35.5141 17.4958C36.9434 17.4958 38.578 17.2425 39.7375 16.9678V11.6745H35.9691V12.8484H35.9677Z" fill="#949494"/>
<path d="M25.3568 11.0253C23.6256 10.4116 22.395 10.0845 22.395 9.25771C22.395 8.43088 23.8041 8.04225 24.9837 8.04225C25.9312 8.04225 27.1417 8.27275 27.9442 8.48448V7.06935C26.9404 6.8134 25.7863 6.65527 24.6818 6.65527C22.1896 6.65527 20.1189 7.70991 20.1189 9.62623C20.1189 11.0937 21.3858 11.761 23.5035 12.4753C25.2562 13.069 26.7163 13.4844 26.7163 14.5082C26.7163 15.453 25.2723 16.0627 23.8591 16.0627C22.6929 16.0627 21.2435 15.7116 20.4007 15.4221V16.9981C21.4972 17.2607 23.0016 17.4805 24.2926 17.4805C27.1471 17.4805 28.9226 16.0091 28.9226 14.204C28.9226 12.3989 27.5322 11.7945 25.3555 11.024L25.3568 11.0253Z" fill="#949494"/>
<path d="M56.4667 17.3467V6.79492H54.8066V9.24995L52.5627 9.24861V10.4144H54.8066V17.3467H56.4667Z" fill="#949494"/>
<path d="M48.5569 11.6657C48.361 11.9846 48.1167 12.3263 47.7531 12.597C47.3733 12.8825 47.0378 13.1076 46.2312 13.2175V14.4169C46.5197 14.3954 48.0443 14.2494 49.0307 13.2872C49.3688 12.9589 49.6158 12.6158 49.8104 12.2942L49.8493 12.2299L49.8895 12.2942C50.0841 12.6158 50.3311 12.9589 50.6693 13.2872C51.6556 14.2507 53.1788 14.3995 53.4687 14.4196V13.2188C52.6622 13.109 52.3267 12.8838 51.9455 12.5984C51.5832 12.3263 51.3389 11.986 51.143 11.667C50.9457 11.3454 50.8035 11.009 50.7189 10.6593C50.633 10.3082 50.5914 9.94506 50.5914 9.56715V6.90039H49.1072V9.56715C49.1072 9.94506 49.0655 10.3082 48.981 10.6593C48.8965 11.009 48.7542 11.3454 48.5556 11.667L48.5569 11.6657Z" fill="#949494"/>
<path d="M90.4994 11.7725H80.7617V12.9384H90.4994V11.7725Z" fill="#949494"/>
<path d="M85.6021 9.73868L85.6316 9.71188L85.6611 9.73868C86.9146 10.8978 89.3651 10.9688 89.8871 10.9675H89.9408V9.93835C89.0403 9.82713 86.9991 9.65962 86.3845 8.13728L86.3549 8.06492H89.9663V6.90039H81.2942V8.06492H84.9056L84.8774 8.13728C84.2627 9.65962 82.2188 9.82713 81.3224 9.93835V10.9675H81.3761C81.8981 10.9702 84.3486 10.8978 85.6021 9.73868Z" fill="#949494"/>
<path d="M70.586 6.9707V12.1849C70.586 13.0225 71.0315 13.466 71.9159 13.466H73.8511V16.0363H69.8157V17.2022H79.552V16.0363H75.4575V13.466H78.7079V6.9707H77.1042V9.29172H72.1924V6.9707H70.586ZM72.1924 10.4401H77.1015V12.3163H72.7265C72.536 12.3163 72.3977 12.2854 72.3078 12.1863C72.2179 12.0858 72.1911 11.9343 72.1911 11.7199V10.4401H72.1924Z" fill="#949494"/>
<path d="M68.1351 12.1489V10.9844H58.3987V12.1489H62.4368V12.7386H59.0026V13.8884H65.8711V14.474H59.0026V16.0647C59.0026 16.9022 59.4481 17.3444 60.3325 17.3444H67.5244V16.196H60.9257C60.8304 16.196 60.7633 16.1813 60.719 16.1317C60.6748 16.0821 60.6627 16.007 60.6627 15.9025V15.6238H67.5325V12.7386H64.0982V12.1489H68.1364H68.1351Z" fill="#949494"/>
<path d="M63.2737 6.18262C60.8084 6.18262 59.3604 7.18634 59.3604 8.44066C59.3604 9.69498 60.8084 10.6987 63.2737 10.6987C65.739 10.6987 67.1884 9.69498 67.1884 8.44066C67.1884 7.18634 65.7403 6.18262 63.2737 6.18262ZM63.2737 9.6253C61.8471 9.6253 61.0097 9.09596 61.0097 8.44066C61.0097 7.78536 61.8471 7.25603 63.2737 7.25603C64.7003 7.25603 65.5377 7.78536 65.5377 8.44066C65.5377 9.09596 64.7003 9.6253 63.2737 9.6253Z" fill="#949494"/>
<path d="M85.6313 13.5107C83.1661 13.5107 81.718 14.5439 81.718 15.8371C81.718 17.1303 83.1661 18.1621 85.6313 18.1621C88.0966 18.1621 89.546 17.1289 89.546 15.8371C89.546 14.5452 88.098 13.5107 85.6313 13.5107ZM85.6313 17.0874C84.2061 17.0874 83.3687 16.5286 83.3687 15.8357C83.3687 15.1429 84.2061 14.5828 85.6313 14.5828C87.0566 14.5828 87.8953 15.1429 87.8953 15.8357C87.8953 16.5286 87.0579 17.0874 85.6313 17.0874Z" fill="#949494"/>
</g>
</svg>
