<svg width="25" height="25" viewBox="0 0 25 25" fill="none" xmlns="http://www.w3.org/2000/svg">
<mask id="mask0_2_2266" style="mask-type:luminance" maskUnits="userSpaceOnUse" x="0" y="0" width="25" height="25">
<path d="M24.5 0.160156H0.5V24.1602H24.5V0.160156Z" fill="white"/>
</mask>
<g mask="url(#mask0_2_2266)">
<path d="M12.5 15.1602C14.1569 15.1602 15.5 13.8171 15.5 12.1602C15.5 10.5033 14.1569 9.16016 12.5 9.16016C10.8431 9.16016 9.5 10.5033 9.5 12.1602C9.5 13.8171 10.8431 15.1602 12.5 15.1602Z" fill="#505050"/>
<path d="M16.1375 4.83277C15.185 4.78777 14.9 4.78027 12.5 4.78027C10.1 4.78027 9.815 4.78027 8.8625 4.83277C6.425 4.94527 5.285 6.10027 5.1725 8.52277C5.1275 9.47527 5.12 9.76027 5.12 12.1603C5.12 14.5603 5.12 14.8453 5.1725 15.7978C5.285 18.2128 6.4175 19.3753 8.8625 19.4878C9.815 19.5328 10.1 19.5403 12.5 19.5403C14.9 19.5403 15.185 19.5403 16.1375 19.4878C18.5825 19.3753 19.715 18.2203 19.8275 15.7978C19.8725 14.8453 19.88 14.5678 19.88 12.1603C19.88 9.75277 19.88 9.47527 19.8275 8.52277C19.715 6.10027 18.575 4.94527 16.1375 4.83277ZM12.5 16.7803C11.5863 16.7803 10.693 16.5093 9.93327 16.0017C9.17351 15.494 8.58135 14.7725 8.23168 13.9283C7.882 13.0841 7.79051 12.1552 7.96877 11.259C8.14704 10.3628 8.58704 9.53955 9.23316 8.89344C9.87927 8.24732 10.7025 7.80731 11.5987 7.62904C12.4949 7.45078 13.4238 7.54227 14.268 7.89195C15.1122 8.24162 15.8337 8.83378 16.3414 9.59354C16.849 10.3533 17.12 11.2466 17.12 12.1603C17.12 13.3856 16.6333 14.5607 15.7668 15.4271C14.9004 16.2936 13.7253 16.7803 12.5 16.7803ZM17.3075 8.41027C17.0939 8.41027 16.8851 8.34693 16.7075 8.22826C16.5299 8.10959 16.3915 7.94091 16.3097 7.74357C16.228 7.54622 16.2066 7.32907 16.2483 7.11957C16.2899 6.91007 16.3928 6.71764 16.5438 6.56659C16.6949 6.41555 16.8873 6.31269 17.0968 6.27102C17.3063 6.22935 17.5235 6.25074 17.7208 6.33248C17.9181 6.41422 18.0868 6.55265 18.2055 6.73025C18.3242 6.90786 18.3875 7.11667 18.3875 7.33027C18.3885 7.47238 18.3612 7.61326 18.3073 7.74475C18.2534 7.87623 18.1739 7.99568 18.0734 8.09617C17.9729 8.19665 17.8535 8.27617 17.722 8.33009C17.5905 8.38401 17.4496 8.41127 17.3075 8.41027Z" fill="#505050"/>
<path d="M18.5 0.160156H6.5C4.9087 0.160156 3.38258 0.792297 2.25736 1.91752C1.13214 3.04274 0.5 4.56886 0.5 6.16016V18.1602C0.5 19.7515 1.13214 21.2776 2.25736 22.4028C3.38258 23.5281 4.9087 24.1602 6.5 24.1602H18.5C20.0913 24.1602 21.6174 23.5281 22.7426 22.4028C23.8679 21.2776 24.5 19.7515 24.5 18.1602V6.16016C24.5 4.56886 23.8679 3.04274 22.7426 1.91752C21.6174 0.792297 20.0913 0.160156 18.5 0.160156ZM21.4475 15.9102C21.2975 19.1802 19.475 20.9952 16.1975 21.1602C15.2525 21.1602 14.945 21.1602 12.5 21.1602C10.055 21.1602 9.7475 21.1602 8.7875 21.1077C5.5175 20.9577 3.7025 19.1427 3.5375 15.8577C3.5 14.9127 3.5 14.6052 3.5 12.1602C3.5 9.71516 3.5 9.40766 3.5525 8.44766C3.7025 5.17766 5.525 3.36266 8.8025 3.19766C9.7475 3.16016 10.055 3.16016 12.5 3.16016C14.945 3.16016 15.2525 3.16016 16.2125 3.21266C19.4825 3.36266 21.2975 5.18516 21.4625 8.46266C21.5 9.40766 21.5 9.71516 21.5 12.1602C21.5 14.6052 21.5 14.9127 21.4475 15.9102Z" fill="#505050"/>
</g>
</svg>
