<svg width="25" height="25" viewBox="0 0 25 25" fill="none" xmlns="http://www.w3.org/2000/svg">
<mask id="mask0_2_2287" style="mask-type:luminance" maskUnits="userSpaceOnUse" x="0" y="0" width="25" height="25">
<path d="M24.5 0.160156H0.5V24.1602H24.5V0.160156Z" fill="white"/>
</mask>
<g mask="url(#mask0_2_2287)">
<path d="M10.7075 14.86L15.395 12.16L10.7075 9.45996V14.86Z" fill="#505050"/>
<path d="M18.5 0.160156H6.5C4.9087 0.160156 3.38258 0.792297 2.25736 1.91752C1.13214 3.04274 0.5 4.56886 0.5 6.16016V18.1602C0.5 19.7515 1.13214 21.2776 2.25736 22.4028C3.38258 23.5281 4.9087 24.1602 6.5 24.1602H18.5C20.0913 24.1602 21.6174 23.5281 22.7426 22.4028C23.8679 21.2776 24.5 19.7515 24.5 18.1602V6.16016C24.5 4.56886 23.8679 3.04274 22.7426 1.91752C21.6174 0.792297 20.0913 0.160156 18.5 0.160156ZM21.5 12.1602C21.5088 13.6109 21.3858 15.0593 21.1325 16.4877C21.0302 16.8689 20.8294 17.2165 20.5504 17.4956C20.2713 17.7747 19.9237 17.9754 19.5425 18.0777C18.1325 18.4452 12.5 18.4452 12.5 18.4452C12.5 18.4452 6.8825 18.4452 5.4575 18.0627C5.0763 17.9604 4.72872 17.7597 4.44963 17.4806C4.17055 17.2015 3.96979 16.8539 3.8675 16.4727C3.61463 15.0493 3.49163 13.6059 3.5 12.1602C3.49121 10.7095 3.61422 9.26106 3.8675 7.83266C3.97357 7.4517 4.17537 7.10422 4.45368 6.82329C4.73199 6.54235 5.07755 6.33731 5.4575 6.22766C6.8675 5.86016 12.5 5.86016 12.5 5.86016C12.5 5.86016 18.1325 5.86016 19.5425 6.24266C19.9237 6.34495 20.2713 6.54571 20.5504 6.82479C20.8294 7.10388 21.0302 7.45146 21.1325 7.83266C21.3929 9.26011 21.516 10.7093 21.5 12.1602Z" fill="#505050"/>
</g>
</svg>
