<svg width="101" height="28" viewBox="0 0 101 28" fill="none" xmlns="http://www.w3.org/2000/svg">
<mask id="mask0_2_2475" style="mask-type:luminance" maskUnits="userSpaceOnUse" x="0" y="0" width="101" height="28">
<path d="M100.5 0H0.5V28H100.5V0Z" fill="white"/>
</mask>
<g mask="url(#mask0_2_2475)">
<path fill-rule="evenodd" clip-rule="evenodd" d="M33.5854 0L21.805 12.3492L17.4811 0H8.82729V0.00583333L6.99492 0L8.09555 2.75917L1.87276 23.2167L0.5 28H9.18408L13.2298 14.5892L16.2233 21.5075H21.8595L29.0317 14.5892L24.986 28H33.791L42.2392 0H33.5854ZM91.441 8.45833C91.1084 9.56083 90.0017 10.7392 87.5827 10.7392H82.0977L83.4765 6.1775H88.9615C91.3745 6.1775 91.7736 7.35583 91.441 8.45833ZM88.6592 19.3492C88.3084 20.5275 87.111 21.8283 84.6921 21.8283H78.7596L80.2412 16.9108H86.1797C88.5926 16.9108 89.022 18.1708 88.6652 19.3492H88.6592ZM100.131 8.21333C101.582 3.3775 98.8249 0 91.3805 0H74.6473L75.76 2.56667L69.0414 25.2933L66.1507 28H83.6942C90.0803 28 95.8314 27.4167 97.4461 22.0675C98.6313 18.1358 97.4521 14.805 96.2063 14.0933C97.4884 13.5042 99.1696 11.3983 100.131 8.21333ZM49.8711 21.8633H62.0748H62.0808C62.1311 21.8371 62.123 21.8414 62.0973 21.8551C61.9687 21.9234 61.4003 22.2256 65.5339 20.0958L63.0665 27.9942H37.2804L40.0501 25.305L46.9502 2.70667L45.7951 0H56.4688L49.8711 21.8633Z" fill="black"/>
</g>
</svg>
