<svg width="25" height="25" viewBox="0 0 25 25" fill="none" xmlns="http://www.w3.org/2000/svg">
<mask id="mask0_2_2299" style="mask-type:luminance" maskUnits="userSpaceOnUse" x="0" y="0" width="25" height="25">
<path d="M24.5 0.160156H0.5V24.1602H24.5V0.160156Z" fill="white"/>
</mask>
<g mask="url(#mask0_2_2299)">
<path d="M18.5 0.160156H6.5C4.9087 0.160156 3.38258 0.792297 2.25736 1.91752C1.13214 3.04274 0.5 4.56886 0.5 6.16016V18.1602C0.5 19.7515 1.13214 21.2776 2.25736 22.4028C3.38258 23.5281 4.9087 24.1602 6.5 24.1602H18.5C20.0913 24.1602 21.6174 23.5281 22.7426 22.4028C23.8679 21.2776 24.5 19.7515 24.5 18.1602V6.16016C24.5 4.56886 23.8679 3.04274 22.7426 1.91752C21.6174 0.792297 20.0913 0.160156 18.5 0.160156ZM11.6825 20.0577C7.6325 20.0577 3.5 18.1002 3.5 14.8752C3.5 13.1877 4.565 11.2377 6.41 9.40016C8.8625 6.91016 11.75 5.82266 12.8075 6.91016C13.28 7.38266 13.325 8.20766 13.0175 9.16016C12.86 9.65516 13.4825 9.37766 13.4825 9.37766C15.47 8.54516 17.2325 8.50016 17.8325 9.37766C17.9933 9.67478 18.0775 10.0073 18.0775 10.3452C18.0775 10.6831 17.9933 11.0156 17.8325 11.3127C17.6825 11.6727 17.8775 11.7327 18.1475 11.8152C19.265 12.1602 20.51 13.0002 20.51 14.4777C20.51 16.9752 17 20.0577 11.6825 20.0577ZM19.0025 9.80516C19.069 9.59991 19.0804 9.38077 19.0354 9.16975C18.9905 8.95872 18.8908 8.76322 18.7465 8.60289C18.6021 8.44255 18.4181 8.32302 18.2129 8.25628C18.0077 8.18954 17.7886 8.17794 17.5775 8.22266H17.54C17.4573 8.23793 17.3723 8.23675 17.2901 8.21919C17.2078 8.20163 17.1298 8.16804 17.0605 8.12034C16.9912 8.07263 16.932 8.01174 16.8862 7.94115C16.8404 7.87056 16.809 7.79164 16.7938 7.70891C16.7785 7.62618 16.7797 7.54125 16.7972 7.45897C16.8148 7.37669 16.8484 7.29868 16.8961 7.22938C16.9438 7.16009 17.0047 7.10087 17.0753 7.0551C17.1459 7.00934 17.2248 6.97793 17.3075 6.96266C17.7391 6.86991 18.1876 6.89252 18.6077 7.02823C19.0278 7.16394 19.4047 7.40795 19.7005 7.73568C19.9963 8.06342 20.2005 8.46331 20.2926 8.89508C20.3847 9.32685 20.3614 9.77527 20.225 10.1952C20.1623 10.3443 20.0459 10.4644 19.8988 10.5317C19.7518 10.5991 19.5848 10.6087 19.4309 10.5587C19.2771 10.5086 19.1477 10.4027 19.0684 10.2617C18.989 10.1207 18.9655 9.95512 19.0025 9.79766V9.80516ZM22.7525 11.0127C22.6907 11.2016 22.5565 11.3582 22.3793 11.4482C22.2021 11.5382 21.9965 11.5542 21.8075 11.4927C21.6204 11.4309 21.4651 11.2978 21.3752 11.1224C21.2854 10.9469 21.2683 10.7432 21.3275 10.5552C21.5264 9.94217 21.5603 9.28759 21.4258 8.65734C21.2912 8.02708 20.993 7.44341 20.561 6.96511C20.1291 6.4868 19.5788 6.13076 18.9655 5.93283C18.3522 5.7349 17.6975 5.70207 17.0675 5.83766C16.8799 5.864 16.6892 5.81833 16.5338 5.70985C16.3785 5.60136 16.27 5.43809 16.2301 5.25286C16.1902 5.06762 16.2219 4.87415 16.3188 4.71133C16.4157 4.54851 16.5707 4.4284 16.7525 4.37516C17.6394 4.18302 18.5613 4.22817 19.4252 4.50607C20.289 4.78396 21.0644 5.28476 21.6729 5.95796C22.2814 6.63115 22.7017 7.45293 22.8912 8.34039C23.0808 9.22785 23.0329 10.1496 22.7525 11.0127Z" fill="#505050"/>
<path d="M10.9325 11.2303C7.70749 11.5453 5.25499 13.5253 5.46499 15.6403C5.67499 17.7553 8.46499 19.2178 11.69 18.9028C14.915 18.5878 17.3675 16.6078 17.1575 14.4853C16.9475 12.3628 14.165 10.9078 10.9325 11.2303ZM13.7675 16.2253C13.3972 16.9669 12.7749 17.5523 12.0121 17.8766C11.2493 18.201 10.396 18.243 9.60499 17.9953C9.25949 17.9012 8.93944 17.7309 8.66828 17.4971C8.39712 17.2632 8.18173 16.9716 8.03791 16.6437C7.89408 16.3157 7.82545 15.9598 7.83706 15.6019C7.84867 15.244 7.94021 14.8932 8.10499 14.5753C8.47937 13.8943 9.06876 13.3564 9.7811 13.0457C10.4935 12.7349 11.2887 12.6689 12.0425 12.8578C12.3992 12.9291 12.7353 13.0801 13.0255 13.2995C13.3157 13.519 13.5525 13.8011 13.7184 14.1249C13.8843 14.4487 13.9748 14.8058 13.9833 15.1695C13.9918 15.5332 13.9181 15.8941 13.7675 16.2253Z" fill="#505050"/>
<path d="M11.75 14.5825C11.6494 14.5472 11.5397 14.5481 11.4398 14.5851C11.3398 14.6221 11.2559 14.6928 11.2025 14.785C11.1756 14.8257 11.158 14.8718 11.151 14.9201C11.1441 14.9684 11.1479 15.0176 11.1623 15.0642C11.1766 15.1108 11.2011 15.1537 11.234 15.1897C11.2669 15.2257 11.3074 15.254 11.3525 15.2725C11.4551 15.3062 11.5661 15.3037 11.6671 15.2655C11.7681 15.2273 11.8529 15.1556 11.9075 15.0625C11.9342 15.0219 11.9515 14.9759 11.9579 14.9277C11.9643 14.8796 11.9598 14.8306 11.9447 14.7845C11.9295 14.7383 11.9041 14.6962 11.8704 14.6612C11.8367 14.6262 11.7956 14.5993 11.75 14.5825Z" fill="#505050"/>
<path d="M10.4825 15.0923C10.2207 14.9966 9.93405 14.9928 9.66969 15.0813C9.40533 15.1699 9.1789 15.3457 9.02753 15.5798C8.95104 15.6821 8.89844 15.8002 8.87358 15.9255C8.84873 16.0508 8.85226 16.18 8.88391 16.3037C8.91557 16.4275 8.97454 16.5426 9.0565 16.6405C9.13846 16.7385 9.24132 16.8168 9.35753 16.8698C9.62467 16.9803 9.92245 16.9919 10.1974 16.9025C10.4723 16.8132 10.7063 16.6287 10.8575 16.3823C10.9327 16.2771 10.9831 16.1562 11.0049 16.0287C11.0266 15.9012 11.0191 15.7705 10.983 15.6463C10.9469 15.5221 10.8831 15.4077 10.7964 15.3118C10.7097 15.2158 10.6024 15.1408 10.4825 15.0923Z" fill="#505050"/>
</g>
</svg>
