<svg width="41" height="41" viewBox="0 0 41 41" fill="none" xmlns="http://www.w3.org/2000/svg">
<g clip-path="url(#clip0_2_2504)">
<path d="M40.5 20.1602C40.5 9.11446 31.5457 0.160156 20.5 0.160156C9.4543 0.160156 0.5 9.11446 0.5 20.1602C0.5 31.2059 9.4543 40.1602 20.5 40.1602C31.5457 40.1602 40.5 31.2059 40.5 20.1602Z" fill="white"/>
<path d="M20.5 28.5598C25.1392 28.5598 28.9 24.799 28.9 20.1598C28.9 15.5206 25.1392 11.7598 20.5 11.7598C15.8608 11.7598 12.1 15.5206 12.1 20.1598C12.1 24.799 15.8608 28.5598 20.5 28.5598Z" stroke="black" stroke-width="1.2" stroke-linecap="round" stroke-linejoin="round"/>
<path d="M19.5 17.1602V21.1602H23.5" stroke="black" stroke-width="1.2" stroke-linecap="square"/>
</g>
<defs>
<clipPath id="clip0_2_2504">
<rect width="40" height="40" fill="white" transform="translate(0.5 0.160156)"/>
</clipPath>
</defs>
</svg>
