<svg width="21" height="21" viewBox="0 0 21 21" fill="none" xmlns="http://www.w3.org/2000/svg">
<path d="M17.409 5.99458C17.409 5.99458 17.0164 4.83528 15.8694 4.7014C15.8694 4.7014 14.9331 4.2328 13.7712 5.48121C12.8238 4.98779 11.7405 4.7076 10.5895 4.7076C9.43862 4.7076 8.26296 5.0135 7.28736 5.54726C6.09801 4.21728 5.12993 4.7014 5.12993 4.7014C3.98341 4.83528 3.59079 5.99458 3.59079 5.99458C2.98441 7.07187 4.13048 8.27993 4.44096 8.57785C4.06821 9.38825 3.85931 10.2847 3.85931 11.2289C3.85931 14.8305 6.87266 17.7503 10.59 17.7503C14.3073 17.7503 17.3207 14.8305 17.3207 11.2289C17.3207 10.2368 17.091 9.29648 16.6816 8.4546C17.091 8.02679 17.9513 6.95838 17.409 5.99458Z" fill="black"/>
<path d="M7.12502 10.9297C7.49468 10.943 7.80383 10.689 7.8162 10.3627C7.82901 10.0347 7.53929 9.75845 7.17051 9.74471C6.80086 9.73052 6.49038 9.98322 6.4789 10.3108C6.46653 10.6385 6.75624 10.9155 7.12502 10.9297Z" fill="white"/>
<path d="M13.7115 11.0679C13.3454 11.0537 13.0583 10.7784 13.0707 10.4538C13.0822 10.1298 13.3891 9.87619 13.7566 9.89126C14.1236 9.90501 14.4106 10.1799 14.3978 10.5048C14.3855 10.8289 14.0785 11.083 13.7115 11.0679Z" fill="white"/>
<path d="M10.4327 16.4079C12.1588 16.4079 13.5582 15.1006 13.5582 13.4881C13.5582 11.8756 12.1588 10.5684 10.4327 10.5684C8.70647 10.5684 7.30713 11.8756 7.30713 13.4881C7.30713 15.1006 8.70647 16.4079 10.4327 16.4079Z" fill="white"/>
<path d="M10.7184 12.5052C10.7184 12.5052 11.4687 12.2804 11.6388 11.9954C11.6388 11.9954 11.8123 11.212 10.8474 10.9194C10.6049 10.8458 9.98658 10.9194 9.98658 10.9194C8.99288 11.0897 9.19515 11.9954 9.19515 11.9954C9.36563 12.28 10.1155 12.5052 10.1155 12.5052C10.1155 12.5052 10.4592 12.6085 10.7184 12.5052Z" fill="black"/>
<path d="M10.7031 12.5059C10.6841 12.5059 10.7075 12.9084 10.7252 12.9492C10.802 13.1252 11.0573 13.2653 11.2092 13.3712C11.4455 13.5366 11.8628 13.6319 11.9953 13.9152C12.1155 14.1723 11.7767 14.2663 11.5837 14.2082C11.3329 14.132 11.0771 13.9511 10.8484 13.827L10.5732 13.6332C10.4558 13.5282 10.2451 13.6332 10.2451 13.6332L9.96994 13.827C9.74116 13.9515 9.48545 14.1324 9.2346 14.2082C9.04204 14.2668 8.70286 14.1723 8.82298 13.9152C8.95548 13.6324 9.37283 13.537 9.60911 13.3712C9.75176 13.2715 9.93946 13.1748 10.0393 13.0192C10.136 12.8685 10.1099 12.6779 10.1152 12.5059H10.7031Z" fill="black"/>
<path d="M8.32544 10.0987C8.32588 10.0916 8.32588 10.0876 8.32588 10.0876H8.32412C8.31572 10.0367 8.24418 9.99232 8.24418 9.99232L6.62864 8.88046C6.56372 8.83613 6.50233 8.86716 6.45551 8.92302C6.4458 8.93454 6.43652 8.94651 6.42769 8.95937C6.37602 9.03163 6.33494 9.11897 6.28945 9.19345C6.20068 9.33797 6.28945 9.3761 6.28945 9.3761L8.07459 10.3678C8.09755 10.3807 8.12096 10.3776 8.14039 10.3696C8.29585 10.343 8.32102 10.1581 8.325 10.1036C8.325 10.1023 8.32544 10.1 8.32544 10.0987Z" fill="white"/>
<path d="M15.0352 8.59724C15.2172 8.52498 15.3983 8.44917 15.5776 8.3707C15.7083 8.31351 15.839 8.25455 15.9662 8.18938C15.9963 8.17386 16.2493 8.03643 16.1698 8.01559C15.9627 7.96151 15.7565 7.90432 15.5502 7.84846C15.3563 7.79615 15.1536 7.71723 14.95 7.73497C14.939 7.73851 14.9279 7.74206 14.9169 7.74605L12.8694 9.15938C12.8694 9.15938 12.7727 9.23829 12.9264 9.25425L13.3133 9.29504C13.3133 9.29504 13.4815 9.28706 13.3155 9.39168L12.4048 9.96623C12.4048 9.96623 12.2988 10.0274 12.3673 10.0655C12.3673 10.0655 12.4331 10.1413 12.7268 10.0221L15.2433 8.99978C15.2433 8.99978 15.3554 8.94525 15.2163 8.93106L14.5879 8.86545C14.5879 8.86545 14.3489 8.84595 15.0352 8.59724Z" fill="white"/>
<path d="M11.6721 2.88278C11.6888 2.74645 11.531 2.61478 11.3196 2.58869C11.1083 2.56261 10.9234 2.65198 10.9067 2.78831C10.89 2.92464 11.0478 3.0563 11.2591 3.08239C11.4705 3.10848 11.6554 3.01911 11.6721 2.88278Z" fill="white"/>
<path d="M8.45575 5.11101C8.45575 5.11101 8.20578 3.34656 10.5902 2.88018C10.5902 2.88018 13.3461 2.36592 13.7281 5.69709C13.7281 5.69709 12.5454 6.35232 12.1559 6.39799L8.45575 5.11101Z" fill="white"/>
<path d="M8.45011 5.04346L6.87079 5.88223C6.87079 5.88223 6.78201 6.1101 6.95602 6.07641C6.95602 6.07641 7.93427 6.09148 8.96904 6.85667C8.96904 6.85667 9.60457 7.57574 10.6058 7.1568L12.156 6.39871C12.156 6.39871 10.6575 5.38127 9.68937 5.13301C9.68937 5.13301 8.80387 4.85549 8.45011 5.04346Z" fill="white"/>
<path d="M11.3155 4.93114C11.2629 4.83538 11.2157 4.64696 11.2559 4.43328C11.2956 4.22004 11.4131 4.05025 11.5116 3.9771L11.5169 3.97311L11.5134 3.96734C11.4838 3.92478 11.3831 3.81041 11.3566 3.794L11.3517 3.79046L11.3473 3.79489C11.2983 3.85252 11.1327 4.07773 11.0593 4.56584L11.0509 4.62967C10.9922 4.49934 10.9162 4.37299 10.8407 4.28211C10.8844 4.20053 10.9551 4.09502 10.9891 4.04448C10.9966 4.03384 11.0019 4.02586 11.005 4.02099C11.1097 3.86006 11.1998 3.75366 11.281 3.69647L11.2855 3.69292L11.2837 3.68849C11.255 3.61313 11.1384 3.47215 11.0907 3.43047L11.0814 3.42205L11.0797 3.43446C11.0615 3.54086 11.0373 3.66056 10.99 3.74657C10.9317 3.85297 10.854 3.98685 10.7692 4.08527C10.7352 3.95936 10.7232 3.80553 10.7171 3.68406C10.7118 3.58564 10.7409 3.46727 10.7709 3.36353L10.7745 3.35156L10.7626 3.35511C10.7016 3.37151 10.5351 3.44821 10.4773 3.50362L10.4733 3.50673L10.4759 3.5116C10.5241 3.5985 10.5594 3.73327 10.5846 3.9239C10.5855 3.92922 10.5868 3.93897 10.5885 3.95138C10.5912 3.96779 10.5938 3.98951 10.5974 4.01434C10.5431 3.93808 10.4909 3.85119 10.4499 3.76607C10.4247 3.71465 10.4075 3.66455 10.3907 3.61712C10.3845 3.60116 10.3792 3.58475 10.373 3.57012L10.3713 3.5648L10.366 3.56613C10.335 3.56924 10.1942 3.62864 10.1504 3.65435L10.1443 3.6579L10.1473 3.66411C10.2043 3.77317 10.237 3.97665 10.1809 4.18635C10.1244 4.39604 10.0007 4.54544 9.91239 4.60884L9.90576 4.61371L10.1403 4.8837L10.3002 4.39072C10.3518 4.22359 10.3832 4.0631 10.3947 3.9137C10.4521 4.02852 10.5329 4.14689 10.6203 4.24309C10.6217 4.27767 10.6203 4.30294 10.6164 4.31846C10.6124 4.33531 10.6053 4.36722 10.5956 4.40668C10.5797 4.47407 10.5576 4.56495 10.54 4.64253C10.5068 4.78794 10.4353 4.85887 10.4353 4.85887L10.43 4.86508L10.4353 4.86951C10.4353 4.86951 10.4693 4.90055 10.5784 4.92537C10.6875 4.9502 10.7316 4.93734 10.7316 4.93734L10.7387 4.93557L10.7365 4.92759C10.7365 4.92759 10.7025 4.83272 10.7356 4.68686C10.7528 4.61017 10.7723 4.52062 10.7873 4.45323L10.7939 4.42042C10.9414 4.61327 10.9825 4.90764 10.9935 5.0668L10.9944 5.07699L11.3199 4.93646L11.3164 4.92936L11.3155 4.93114Z" fill="#C7171E"/>
</svg>
