<svg width="25" height="25" viewBox="0 0 25 25" fill="none" xmlns="http://www.w3.org/2000/svg">
<path d="M20.7908 7.04388C20.7908 7.04388 20.3197 5.65272 18.9433 5.49207C18.9433 5.49207 17.8197 4.92975 16.4255 6.42784C15.2886 5.83574 13.9886 5.49951 12.6074 5.49951C11.2264 5.49951 9.81557 5.86659 8.64485 6.5071C7.21763 4.91112 6.05593 5.49207 6.05593 5.49207C4.68011 5.65272 4.20896 7.04388 4.20896 7.04388C3.48131 8.33663 4.85659 9.7863 5.22917 10.1438C4.78187 11.1163 4.53118 12.192 4.53118 13.3251C4.53118 17.647 8.14721 21.1507 12.608 21.1507C17.0688 21.1507 20.6849 17.647 20.6849 13.3251C20.6849 12.1345 20.4092 11.0062 19.9179 9.99591C20.4092 9.48254 21.4416 8.20044 20.7908 7.04388Z" fill="black"/>
<path d="M8.45 12.9661C8.89359 12.9821 9.26457 12.6773 9.27941 12.2857C9.29478 11.8921 8.94712 11.5606 8.50458 11.5441C8.061 11.5271 7.68843 11.8304 7.67465 12.2234C7.65981 12.6167 8.00746 12.9491 8.45 12.9661Z" fill="white"/>
<path d="M16.3538 13.132C15.9145 13.1149 15.5699 12.7846 15.5848 12.3951C15.5986 12.0062 15.9669 11.7019 16.4079 11.72C16.8483 11.7365 17.1927 12.0663 17.1773 12.4563C17.1626 12.8452 16.7942 13.1501 16.3538 13.132Z" fill="white"/>
<path d="M12.4192 19.5396C14.4906 19.5396 16.1699 17.9709 16.1699 16.0359C16.1699 14.1009 14.4906 12.5322 12.4192 12.5322C10.3478 12.5322 8.66858 14.1009 8.66858 16.0359C8.66858 17.9709 10.3478 19.5396 12.4192 19.5396Z" fill="white"/>
<path d="M12.7621 14.8568C12.7621 14.8568 13.6625 14.587 13.8666 14.245C13.8666 14.245 14.0748 13.3049 12.9169 12.9538C12.6259 12.8655 11.8839 12.9538 11.8839 12.9538C10.6915 13.1582 10.9342 14.245 10.9342 14.245C11.1388 14.5865 12.0387 14.8568 12.0387 14.8568C12.0387 14.8568 12.4511 14.9807 12.7621 14.8568Z" fill="black"/>
<path d="M12.7437 14.8574C12.7209 14.8574 12.749 15.3404 12.7702 15.3894C12.8624 15.6006 13.1687 15.7687 13.351 15.8958C13.6346 16.0943 14.1353 16.2086 14.2943 16.5486C14.4386 16.8571 14.032 16.9699 13.8004 16.9002C13.4995 16.8087 13.1925 16.5917 12.9181 16.4427L12.5878 16.2102C12.4469 16.0842 12.1941 16.2102 12.1941 16.2102L11.8639 16.4427C11.5894 16.5921 11.2825 16.8092 10.9815 16.9002C10.7504 16.9705 10.3434 16.8571 10.4876 16.5486C10.6466 16.2092 11.1474 16.0947 11.4309 15.8958C11.6021 15.7761 11.8273 15.6601 11.9471 15.4734C12.0632 15.2925 12.0319 15.0638 12.0383 14.8574H12.7437Z" fill="black"/>
<path d="M9.89056 11.9687C9.89108 11.9601 9.89108 11.9554 9.89108 11.9554H9.88897C9.87889 11.8942 9.79304 11.841 9.79304 11.841L7.8544 10.5067C7.77649 10.4535 7.70282 10.4908 7.64664 10.5578C7.63499 10.5716 7.62385 10.586 7.61326 10.6014C7.55125 10.6881 7.50196 10.793 7.44737 10.8823C7.34084 11.0558 7.44737 11.1015 7.44737 11.1015L9.58954 12.2916C9.61709 12.307 9.64518 12.3033 9.6685 12.2937C9.85505 12.2618 9.88525 12.0399 9.89003 11.9745C9.89003 11.9729 9.89056 11.9703 9.89056 11.9687Z" fill="white"/>
<path d="M17.9422 10.1672C18.1606 10.0805 18.3779 9.98949 18.5931 9.89533C18.7499 9.8267 18.9068 9.75595 19.0594 9.67774C19.0955 9.65912 19.3991 9.4942 19.3037 9.46919C19.0552 9.4043 18.8078 9.33567 18.5602 9.26864C18.3275 9.20587 18.0843 9.11116 17.84 9.13245C17.8268 9.1367 17.8135 9.14096 17.8003 9.14575L15.3433 10.8417C15.3433 10.8417 15.2272 10.9364 15.4117 10.9556L15.8759 11.0045C15.8759 11.0045 16.0778 10.995 15.8786 11.1205L14.7857 11.81C14.7857 11.81 14.6585 11.8834 14.7407 11.9291C14.7407 11.9291 14.8197 12.0201 15.1721 11.877L18.1919 10.6502C18.1919 10.6502 18.3265 10.5848 18.1595 10.5678L17.4055 10.489C17.4055 10.489 17.1187 10.4656 17.9422 10.1672Z" fill="white"/>
<path d="M13.9065 3.30951C13.9265 3.14591 13.7372 2.98791 13.4835 2.9566C13.2299 2.9253 13.0081 3.03255 12.988 3.19614C12.968 3.35974 13.1573 3.51773 13.4109 3.54904C13.6646 3.58035 13.8865 3.4731 13.9065 3.30951Z" fill="white"/>
<path d="M10.0469 5.9838C10.0469 5.9838 9.74695 3.86646 12.6083 3.30681C12.6083 3.30681 15.9153 2.6897 16.3737 6.6871C16.3737 6.6871 14.9545 7.47338 14.4871 7.52818L10.0469 5.9838Z" fill="white"/>
<path d="M10.0402 5.90264L8.14497 6.90917C8.14497 6.90917 8.03844 7.18261 8.24725 7.14218C8.24725 7.14218 9.42115 7.16027 10.6629 8.07849C10.6629 8.07849 11.4255 8.94138 12.627 8.43865L14.4872 7.52894C14.4872 7.52894 12.689 6.30801 11.5273 6.0101C11.5273 6.0101 10.4647 5.67708 10.0402 5.90264Z" fill="white"/>
<path d="M13.4786 5.76757C13.4155 5.65265 13.3589 5.42655 13.4071 5.17013C13.4547 4.91425 13.5957 4.7105 13.7139 4.62272L13.7203 4.61793L13.7161 4.61101C13.6806 4.55993 13.5597 4.42269 13.5279 4.403L13.5221 4.39875L13.5168 4.40407C13.458 4.47322 13.2593 4.74347 13.1712 5.32921L13.1611 5.4058C13.0907 5.24941 12.9995 5.09779 12.9089 4.98873C12.9613 4.89083 13.0461 4.76422 13.0869 4.70357C13.0959 4.69081 13.1023 4.68123 13.106 4.67539C13.2317 4.48227 13.3398 4.35459 13.4372 4.28596L13.4426 4.2817L13.4405 4.27639C13.406 4.18595 13.2661 4.01678 13.2089 3.96676L13.1977 3.95666L13.1957 3.97155C13.1738 4.09923 13.1448 4.24287 13.088 4.34608C13.0181 4.47376 12.9248 4.63442 12.8231 4.75252C12.7823 4.60143 12.7679 4.41683 12.7605 4.27107C12.7542 4.15297 12.7891 4.01092 12.8251 3.88643L12.8294 3.87207L12.8151 3.87633C12.7419 3.89601 12.5421 3.98805 12.4727 4.05454L12.468 4.05827L12.4711 4.06412C12.5289 4.1684 12.5713 4.33012 12.6015 4.55888C12.6026 4.56526 12.6042 4.57696 12.6062 4.59185C12.6095 4.61155 12.6126 4.63761 12.6169 4.66741C12.5517 4.57589 12.4891 4.47163 12.4399 4.36948C12.4097 4.30778 12.389 4.24766 12.3688 4.19074C12.3614 4.17159 12.3551 4.1519 12.3476 4.13434L12.3455 4.12796L12.3392 4.12955C12.3021 4.13329 12.133 4.20457 12.0805 4.23542L12.0731 4.23968L12.0768 4.24713C12.1452 4.378 12.1844 4.62218 12.1171 4.87382C12.0493 5.12545 11.9009 5.30473 11.7949 5.38081L11.7869 5.38665L12.0684 5.71064L12.2602 5.11906C12.3222 4.91851 12.3598 4.72592 12.3736 4.54664C12.4425 4.68442 12.5395 4.82647 12.6444 4.94191C12.6461 4.9834 12.6444 5.01373 12.6397 5.03235C12.6349 5.05257 12.6264 5.09086 12.6147 5.13821C12.5957 5.21908 12.5691 5.32814 12.548 5.42123C12.5082 5.59573 12.4224 5.68084 12.4224 5.68084L12.416 5.68829L12.4224 5.69361C12.4224 5.69361 12.4632 5.73086 12.5941 5.76064C12.725 5.79044 12.7779 5.77501 12.7779 5.77501L12.7865 5.77288L12.7838 5.76331C12.7838 5.76331 12.743 5.64946 12.7827 5.47443C12.8034 5.3824 12.8268 5.27494 12.8448 5.19407L12.8527 5.1547C13.0297 5.38612 13.079 5.73937 13.0922 5.93036L13.0933 5.94259L13.4839 5.77395L13.4797 5.76543L13.4786 5.76757Z" fill="#C7171E"/>
</svg>
