<svg width="20" height="20" viewBox="0 0 20 20" fill="none" xmlns="http://www.w3.org/2000/svg">
<path d="M16.909 5.74458C16.909 5.74458 16.5164 4.58528 15.3694 4.4514C15.3694 4.4514 14.4331 3.9828 13.2712 5.23121C12.3238 4.73779 11.2405 4.4576 10.0895 4.4576C8.93862 4.4576 7.76296 4.7635 6.78736 5.29726C5.59801 3.96728 4.62993 4.4514 4.62993 4.4514C3.48341 4.58528 3.09079 5.74458 3.09079 5.74458C2.48441 6.82187 3.63048 8.02993 3.94096 8.32785C3.56821 9.13825 3.35931 10.0347 3.35931 10.9789C3.35931 14.5805 6.37266 17.5003 10.09 17.5003C13.8073 17.5003 16.8207 14.5805 16.8207 10.9789C16.8207 9.98678 16.591 9.04648 16.1816 8.2046C16.591 7.77679 17.4513 6.70838 16.909 5.74458Z" fill="black"/>
<path d="M6.62502 10.6797C6.99468 10.693 7.30383 10.439 7.3162 10.1127C7.32901 9.78465 7.03929 9.50845 6.67051 9.49471C6.30086 9.48052 5.99038 9.73322 5.9789 10.0608C5.96653 10.3885 6.25669 10.6651 6.62547 10.6793" fill="white"/>
<path d="M13.2115 10.8179C12.8454 10.8037 12.5583 10.5284 12.5707 10.2038C12.5822 9.87977 12.8891 9.62619 13.2566 9.64126C13.6236 9.65501 13.9106 9.92987 13.8978 10.2548C13.8855 10.5789 13.5781 10.8334 13.2111 10.8183" fill="white"/>
<path d="M9.93266 16.1579C11.6588 16.1579 13.0582 14.8506 13.0582 13.2381C13.0582 11.6256 11.6588 10.3184 9.93266 10.3184C8.20647 10.3184 6.80713 11.6256 6.80713 13.2381C6.80713 14.8506 8.20647 16.1579 9.93266 16.1579Z" fill="white"/>
<path d="M10.2184 12.2552C10.2184 12.2552 10.9687 12.0304 11.1388 11.7454C11.1388 11.7454 11.3123 10.962 10.3474 10.6694C10.1049 10.5958 9.48658 10.6694 9.48658 10.6694C8.49288 10.8397 8.69515 11.7454 8.69515 11.7454C8.86563 12.03 9.61554 12.2552 9.61554 12.2552C9.61554 12.2552 9.9587 12.3585 10.2179 12.2552H10.2184Z" fill="black"/>
<path d="M10.2031 12.2559C10.1841 12.2559 10.2075 12.6584 10.2252 12.6992C10.302 12.8752 10.5573 13.0153 10.7092 13.1212C10.9455 13.2866 11.3628 13.3819 11.4953 13.6652C11.6155 13.9223 11.2767 14.0163 11.0837 13.9582C10.8329 13.882 10.5771 13.7011 10.3484 13.577L10.0732 13.3832C9.95575 13.2782 9.74508 13.3832 9.74508 13.3832L9.46994 13.577C9.24116 13.7015 8.98545 13.8824 8.7346 13.9582C8.54204 14.0168 8.20286 13.9223 8.32298 13.6652C8.45548 13.3824 8.87283 13.287 9.10911 13.1212C9.25176 13.0215 9.43946 12.9248 9.53928 12.7692C9.636 12.6185 9.60994 12.4279 9.61524 12.2559H10.2022H10.2031Z" fill="black"/>
<path d="M7.82544 9.84872C7.82588 9.84163 7.82588 9.83764 7.82588 9.83764H7.82412C7.81572 9.78666 7.74418 9.74232 7.74418 9.74232L6.12864 8.63046C6.06372 8.58613 6.00233 8.61716 5.95551 8.67302C5.9458 8.68454 5.93652 8.69651 5.92769 8.70937C5.87602 8.78163 5.83494 8.86897 5.78945 8.94345C5.70068 9.08797 5.78945 9.1261 5.78945 9.1261L7.57459 10.1178C7.59755 10.1307 7.62096 10.1276 7.64039 10.1196C7.79585 10.093 7.82102 9.90813 7.825 9.8536C7.825 9.85227 7.825 9.8505 7.825 9.84917L7.82544 9.84872Z" fill="white"/>
<path d="M14.5352 8.34724C14.7172 8.27498 14.8983 8.19917 15.0776 8.1207C15.2083 8.06351 15.339 8.00455 15.4662 7.93938C15.4963 7.92386 15.7493 7.78643 15.6698 7.76559C15.4627 7.71151 15.2565 7.65432 15.0502 7.59846C14.8563 7.54615 14.6536 7.46723 14.45 7.48497C14.439 7.48851 14.4279 7.49206 14.4169 7.49605L12.3694 8.90938C12.3694 8.90938 12.2727 8.98829 12.4264 9.00425L12.8133 9.04504C12.8133 9.04504 12.9815 9.03706 12.8155 9.14168L11.9048 9.71623C11.9048 9.71623 11.7988 9.77741 11.8673 9.81554C11.8673 9.81554 11.9331 9.89135 12.2268 9.77209L14.7433 8.74978C14.7433 8.74978 14.8554 8.69525 14.7163 8.68106L14.0879 8.61545C14.0879 8.61545 13.8489 8.59506 14.5352 8.34635V8.34724Z" fill="white"/>
<path d="M11.1721 2.63278C11.1888 2.49645 11.031 2.36478 10.8196 2.33869C10.6083 2.31261 10.4234 2.40198 10.4067 2.53831C10.39 2.67464 10.5478 2.8063 10.7591 2.83239C10.9705 2.85848 11.1554 2.76911 11.1721 2.63278Z" fill="white"/>
<path d="M7.95575 4.86101C7.95575 4.86101 7.70578 3.09656 10.0902 2.63018C10.0902 2.63018 12.8461 2.11592 13.2281 5.44709C13.2281 5.44709 12.0454 6.10232 11.6559 6.14799L7.95575 4.86101Z" fill="white"/>
<path d="M7.95011 4.79346L6.37079 5.63223C6.37079 5.63223 6.28201 5.8601 6.45602 5.82641C6.45602 5.82641 7.43427 5.84148 8.46904 6.60667C8.46904 6.60667 9.10457 7.32574 10.1058 6.9068L11.656 6.14871C11.656 6.14871 10.1575 5.13127 9.18937 4.88301C9.18937 4.88301 8.30343 4.60593 7.94967 4.7939L7.95011 4.79346Z" fill="white"/>
<path d="M10.8155 4.68114C10.7629 4.58538 10.7157 4.39696 10.7559 4.18328C10.7956 3.97004 10.9131 3.80025 11.0116 3.7271L11.0169 3.72311L11.0134 3.71734C10.9838 3.67478 10.8831 3.56041 10.8566 3.544L10.8517 3.54046L10.8473 3.54489C10.7983 3.60252 10.6327 3.82773 10.5593 4.31584L10.5509 4.37967C10.4922 4.24934 10.4162 4.12299 10.3407 4.03211C10.3844 3.95053 10.4551 3.84502 10.4891 3.79448C10.4966 3.78384 10.5019 3.77586 10.505 3.77099C10.6097 3.61006 10.6998 3.50366 10.781 3.44647L10.7855 3.44292L10.7837 3.43849C10.755 3.36313 10.6384 3.22215 10.5907 3.18047L10.5814 3.17205L10.5797 3.18446C10.5615 3.29086 10.5373 3.41056 10.49 3.49657C10.4317 3.60297 10.354 3.73685 10.2692 3.83527C10.2352 3.70936 10.2232 3.55553 10.2171 3.43406C10.2118 3.33564 10.2409 3.21727 10.2709 3.11353L10.2745 3.10156L10.2626 3.10511C10.2016 3.12151 10.0351 3.19821 9.97725 3.25362L9.97328 3.25673L9.97593 3.2616C10.0241 3.3485 10.0594 3.48327 10.0846 3.6739C10.0855 3.67922 10.0868 3.68897 10.0885 3.70138C10.0912 3.71779 10.0938 3.73951 10.0974 3.76434C10.0431 3.68808 9.99094 3.60119 9.94987 3.51607C9.9247 3.46465 9.90747 3.41455 9.89069 3.36712C9.88451 3.35116 9.87921 3.33475 9.87302 3.32012L9.87126 3.3148L9.86596 3.31613C9.83504 3.31924 9.69416 3.37864 9.65043 3.40435L9.64425 3.4079L9.64734 3.41411C9.70431 3.52317 9.737 3.72665 9.68091 3.93635C9.62438 4.14604 9.50072 4.29544 9.41239 4.35884L9.40576 4.36371L9.64028 4.6337L9.80015 4.14072C9.85182 3.97359 9.88318 3.8131 9.89466 3.6637C9.95208 3.77852 10.0329 3.89689 10.1203 3.99309C10.1217 4.02767 10.1203 4.05294 10.1164 4.06846C10.1124 4.08531 10.1053 4.11722 10.0956 4.15668C10.0797 4.22407 10.0576 4.31495 10.04 4.39253C10.0068 4.53794 9.93618 4.60887 9.9353 4.60887L9.93 4.61508L9.9353 4.61951C9.9353 4.61951 9.9693 4.65055 10.0784 4.67537C10.1875 4.7002 10.2299 4.68734 10.2316 4.68734L10.2387 4.68557L10.2365 4.67759C10.2365 4.67759 10.2025 4.58272 10.2356 4.43686C10.2528 4.36017 10.2723 4.27062 10.2873 4.20323L10.2939 4.17042C10.4414 4.36327 10.4825 4.65764 10.4935 4.8168L10.4944 4.82699L10.8199 4.68646L10.8164 4.67936L10.8155 4.68114Z" fill="#C7171E"/>
</svg>
