<svg width="100" height="28" viewBox="0 0 100 28" fill="none" xmlns="http://www.w3.org/2000/svg">
<g id="brandidentity" clip-path="url(#clip0_7277_90252)">
<path id="Vector" fill-rule="evenodd" clip-rule="evenodd" d="M33.0854 0L21.305 12.3492L16.9811 0H8.32729V0.00583333L6.49492 0L7.59555 2.75917L1.37276 23.2167L0 28H8.68408L12.7298 14.5892L15.7233 21.5075H21.3595L28.5317 14.5892L24.486 28H33.291L41.7392 0H33.0854ZM90.941 8.45833C90.6084 9.56083 89.5017 10.7392 87.0827 10.7392H81.5977L82.9765 6.1775H88.4615C90.8745 6.1775 91.2736 7.35583 90.941 8.45833ZM88.1592 19.3492C87.8084 20.5275 86.611 21.8283 84.1921 21.8283H78.2596L79.7412 16.9108H85.6797C88.0926 16.9108 88.522 18.1708 88.1652 19.3492H88.1592ZM99.6311 8.21333C101.082 3.3775 98.3249 0 90.8805 0H74.1473L75.26 2.56667L68.5414 25.2933L65.6507 28H83.1942C89.5803 28 95.3314 27.4167 96.9461 22.0675C98.1313 18.1358 96.9521 14.805 95.7063 14.0933C96.9884 13.5042 98.6696 11.3983 99.6311 8.21333ZM49.3711 21.8633H61.5748H61.5808C61.6311 21.8371 61.623 21.8414 61.5973 21.8551C61.4687 21.9234 60.9003 22.2256 65.0339 20.0958L62.5665 27.9942H36.7804L39.5501 25.305L46.4502 2.70667L45.2951 0H55.9688L49.3711 21.8633Z" fill="black"/>
</g>
<defs>
<clipPath id="clip0_7277_90252">
<rect width="100" height="28" fill="white"/>
</clipPath>
</defs>
</svg>
