<svg width="24" height="24" viewBox="0 0 24 24" fill="none" xmlns="http://www.w3.org/2000/svg">
<g id="channel-32" clip-path="url(#clip0_4785_867)">
<g id="Vector">
<path d="M18 0H6C4.4087 0 2.88258 0.632141 1.75736 1.75736C0.632141 2.88258 0 4.4087 0 6V18C0 19.5913 0.632141 21.1174 1.75736 22.2426C2.88258 23.3679 4.4087 24 6 24H18C19.5913 24 21.1174 23.3679 22.2426 22.2426C23.3679 21.1174 24 19.5913 24 18V6C24 4.4087 23.3679 2.88258 22.2426 1.75736C21.1174 0.632141 19.5913 0 18 0ZM11.1825 19.8975C7.1325 19.8975 3 17.94 3 14.715C3 13.0275 4.065 11.0775 5.91 9.24C8.3625 6.75 11.25 5.6625 12.3075 6.75C12.78 7.2225 12.825 8.0475 12.5175 9C12.36 9.495 12.9825 9.2175 12.9825 9.2175C14.97 8.385 16.7325 8.34 17.3325 9.2175C17.4933 9.51462 17.5775 9.84715 17.5775 10.185C17.5775 10.5229 17.4933 10.8554 17.3325 11.1525C17.1825 11.5125 17.3775 11.5725 17.6475 11.655C18.765 12 20.01 12.84 20.01 14.3175C20.01 16.815 16.5 19.8975 11.1825 19.8975ZM18.5025 9.645C18.569 9.43975 18.5804 9.22061 18.5354 9.00959C18.4905 8.79856 18.3908 8.60306 18.2465 8.44273C18.1021 8.28239 17.9181 8.16286 17.7129 8.09612C17.5077 8.02938 17.2886 8.01778 17.0775 8.0625H17.04C16.9573 8.07777 16.8723 8.07659 16.7901 8.05903C16.7078 8.04147 16.6298 8.00788 16.5605 7.96018C16.4912 7.91247 16.432 7.85158 16.3862 7.78099C16.3404 7.7104 16.309 7.63148 16.2938 7.54875C16.2785 7.46602 16.2797 7.38109 16.2972 7.29881C16.3148 7.21653 16.3484 7.13852 16.3961 7.06922C16.4438 6.99993 16.5047 6.94071 16.5753 6.89494C16.6459 6.84918 16.7248 6.81777 16.8075 6.8025C17.2391 6.70975 17.6876 6.73236 18.1077 6.86807C18.5278 7.00378 18.9047 7.24779 19.2005 7.57552C19.4963 7.90326 19.7005 8.30315 19.7926 8.73492C19.8847 9.16669 19.8614 9.61511 19.725 10.035C19.6623 10.1841 19.5459 10.3042 19.3988 10.3715C19.2518 10.4389 19.0848 10.4485 18.9309 10.3985C18.7771 10.3484 18.6477 10.2425 18.5684 10.1015C18.489 9.96057 18.4655 9.79496 18.5025 9.6375V9.645ZM22.2525 10.8525C22.1907 11.0414 22.0565 11.198 21.8793 11.288C21.7021 11.378 21.4965 11.394 21.3075 11.3325C21.1204 11.2707 20.9651 11.1376 20.8752 10.9622C20.7854 10.7867 20.7683 10.583 20.8275 10.395C21.0264 9.78201 21.0603 9.12743 20.9258 8.49718C20.7912 7.86692 20.493 7.28325 20.061 6.80495C19.6291 6.32664 19.0788 5.9706 18.4655 5.77267C17.8522 5.57474 17.1975 5.54191 16.5675 5.6775C16.3799 5.70384 16.1892 5.65817 16.0338 5.54969C15.8785 5.4412 15.77 5.27793 15.7301 5.0927C15.6902 4.90746 15.7219 4.71399 15.8188 4.55117C15.9157 4.38835 16.0707 4.26824 16.2525 4.215C17.1394 4.02286 18.0613 4.06801 18.9252 4.34591C19.789 4.6238 20.5644 5.1246 21.1729 5.7978C21.7814 6.47099 22.2017 7.29277 22.3912 8.18023C22.5808 9.06769 22.5329 9.98944 22.2525 10.8525Z" fill="#505050"/>
<path d="M10.4325 11.07C7.2075 11.385 4.755 13.365 4.965 15.48C5.175 17.595 7.965 19.0575 11.19 18.7425C14.415 18.4275 16.8675 16.4475 16.6575 14.325C16.4475 12.2025 13.665 10.7475 10.4325 11.07ZM13.2675 16.065C12.8972 16.8066 12.2749 17.392 11.5121 17.7163C10.7493 18.0407 9.89598 18.0827 9.105 17.835C8.7595 17.7409 8.43945 17.5706 8.16829 17.3368C7.89713 17.1029 7.68174 16.8113 7.53792 16.4834C7.39409 16.1554 7.32546 15.7995 7.33707 15.4416C7.34868 15.0837 7.44022 14.7329 7.605 14.415C7.97938 13.734 8.56877 13.1961 9.28111 12.8854C9.99346 12.5746 10.7887 12.5086 11.5425 12.6975C11.8992 12.7688 12.2353 12.9198 12.5255 13.1392C12.8157 13.3587 13.0525 13.6408 13.2184 13.9646C13.3843 14.2884 13.4748 14.6455 13.4833 15.0092C13.4918 15.3729 13.4181 15.7338 13.2675 16.065Z" fill="#505050"/>
<path d="M11.25 14.4225C11.1494 14.3872 11.0397 14.3881 10.9398 14.4251C10.8398 14.4621 10.7559 14.5328 10.7025 14.625C10.6756 14.6657 10.658 14.7118 10.651 14.7601C10.6441 14.8084 10.6479 14.8576 10.6623 14.9042C10.6766 14.9508 10.7011 14.9937 10.734 15.0297C10.7669 15.0657 10.8074 15.094 10.8525 15.1125C10.9551 15.1462 11.0661 15.1437 11.1671 15.1055C11.2681 15.0673 11.3529 14.9956 11.4075 14.9025C11.4342 14.8619 11.4515 14.8159 11.4579 14.7677C11.4643 14.7196 11.4598 14.6706 11.4447 14.6245C11.4295 14.5783 11.4041 14.5362 11.3704 14.5012C11.3367 14.4662 11.2956 14.4393 11.25 14.4225Z" fill="#505050"/>
<path d="M9.9825 14.9325C9.72063 14.8368 9.43402 14.833 9.16966 14.9215C8.9053 15.0101 8.67887 15.1859 8.5275 15.42C8.45101 15.5223 8.39841 15.6404 8.37355 15.7657C8.3487 15.891 8.35223 16.0202 8.38388 16.1439C8.41554 16.2677 8.47451 16.3828 8.55647 16.4807C8.63843 16.5787 8.74129 16.657 8.8575 16.71C9.12464 16.8205 9.42242 16.8321 9.69735 16.7427C9.97228 16.6534 10.2063 16.4689 10.3575 16.2225C10.4327 16.1173 10.4831 15.9964 10.5049 15.8689C10.5266 15.7414 10.5191 15.6107 10.483 15.4865C10.4469 15.3623 10.3831 15.2479 10.2964 15.152C10.2097 15.056 10.1024 14.981 9.9825 14.9325Z" fill="#505050"/>
</g>
</g>
<defs>
<clipPath id="clip0_4785_867">
<rect width="24" height="24" fill="white"/>
</clipPath>
</defs>
</svg>
