<svg width="90" height="18" viewBox="0 0 90 18" fill="none" xmlns="http://www.w3.org/2000/svg">
<g clip-path="url(#clip0_8492_621442)">
<path d="M-0.00232009 12.0315C0.710293 12.6064 2.35427 13.3568 4.20089 13.7454C7.36404 14.4088 11.0452 14.1944 11.064 11.5638V9.47861H8.51818V11.7501C6.87017 11.8948 5.40469 11.0545 5.3094 9.46789C5.25169 8.49767 5.75361 7.71372 6.52393 7.27015C7.85253 6.5063 10.2494 6.57063 12.1121 7.57167C16.0107 9.66488 15.7101 14.579 12.2785 16.5047C8.10483 18.8471 1.51014 17.1707 -0.00366211 16.5087V12.0315H-0.00232009Z" fill="#949494"/>
<path d="M14.253 5.69674C10.2068 3.6826 5.8909 4.23471 4.15969 5.615C2.22986 7.15208 2.19229 9.69823 3.5947 10.9405C-0.37366 9.59639 -0.404526 6.06661 0.675801 4.36068C2.43788 1.57867 8.45013 0.254666 14.253 2.48992V5.69674Z" fill="#949494"/>
<path d="M22.6109 0.154785H22.0634C22.0634 0.154785 21.2971 1.39704 21.1602 1.6195C21.0247 1.39704 20.2624 0.154785 20.2624 0.154785H19.5256C19.5256 0.154785 20.8032 2.22789 20.8314 2.2748V3.81589H21.485V2.22655C21.5132 2.18099 22.7841 0.156125 22.7841 0.156125H22.6109V0.154785Z" fill="#949494"/>
<path d="M22.7895 1.35515C22.5587 1.61781 22.4419 1.97695 22.4419 2.42186C22.4419 2.86676 22.5587 3.22591 22.7895 3.48588C23.0243 3.75122 23.3437 3.88523 23.7369 3.88523C24.1302 3.88523 24.4455 3.75122 24.6804 3.48588C24.9126 3.22457 25.0307 2.86676 25.0307 2.42052C25.0307 1.97427 24.9126 1.61647 24.6804 1.35381C24.4455 1.08847 24.1275 0.953125 23.7369 0.953125C23.3464 0.953125 23.0243 1.08847 22.7895 1.35381V1.35515ZM23.2632 3.09726C23.1465 2.94851 23.0888 2.7207 23.0888 2.42052C23.0888 2.12034 23.1465 1.87912 23.2619 1.73439C23.3746 1.59502 23.5289 1.52668 23.7369 1.52668C23.945 1.52668 24.0953 1.59502 24.2093 1.73439C24.3261 1.87778 24.3851 2.10828 24.3851 2.41918C24.3851 2.73008 24.3248 2.94985 24.208 3.0986C24.0939 3.24065 23.9396 3.31033 23.7369 3.31033C23.5343 3.31033 23.3773 3.24065 23.2632 3.09592V3.09726Z" fill="#949494"/>
<path d="M27.7775 1.0249H27.2447V3.00421C27.1428 3.07925 27.0367 3.14625 26.924 3.19584C26.8019 3.24944 26.6892 3.27624 26.5885 3.27624C26.4462 3.27624 26.3711 3.25614 26.3349 3.24006C26.2852 3.21728 26.2449 3.1811 26.2127 3.12749C26.1792 3.07389 26.1564 3.00555 26.1456 2.92514L26.1268 2.60084V1.0249H25.4988V2.80587C25.4988 3.15161 25.5847 3.41963 25.7538 3.60322C25.9242 3.78949 26.1644 3.88464 26.4664 3.88464C26.6435 3.88464 26.8073 3.85114 26.9549 3.78279C27.0488 3.73857 27.1481 3.66621 27.2447 3.60054V3.81362H27.8728V1.0249H27.7775Z" fill="#949494"/>
<path d="M29.3996 1.12126C29.3016 1.16415 29.1889 1.23383 29.0695 1.31692V1.02478H28.4414V3.81349H29.0695V1.92799C29.1701 1.85027 29.2748 1.78192 29.3808 1.731C29.4962 1.6774 29.613 1.6506 29.7338 1.6506L29.9418 1.65998L30.1216 1.69214L30.2343 1.71224L30.2625 1.59967V1.06498L30.0237 1.03014L29.8465 1.02344C29.6949 1.02344 29.5446 1.0556 29.3996 1.11858V1.12126Z" fill="#949494"/>
<path d="M32.1893 0.154785H32.094V3.81589H33.4213C33.6695 3.81589 33.8789 3.79311 34.0426 3.74755C34.2104 3.70199 34.366 3.62292 34.5056 3.51169C34.6277 3.41789 34.7244 3.29728 34.7968 3.15255C34.868 3.00782 34.9042 2.84031 34.9042 2.65404C34.9042 2.39138 34.8277 2.17027 34.6787 1.99606C34.5673 1.86607 34.4144 1.78165 34.2439 1.71866C34.3298 1.65702 34.4076 1.58733 34.4667 1.50559C34.5633 1.37292 34.6116 1.21211 34.6116 1.02852C34.6116 0.867709 34.5794 0.725661 34.5123 0.606393C34.4479 0.487126 34.3405 0.38662 34.1969 0.310235C34.0694 0.245911 33.9379 0.204368 33.8037 0.184267L33.2213 0.154785H32.192H32.1893ZM33.2025 0.747102L33.5796 0.761843C33.6695 0.769883 33.746 0.792665 33.8078 0.827507C33.852 0.852968 33.8843 0.88513 33.9044 0.925333C33.9245 0.969556 33.9366 1.02584 33.9366 1.09418C33.9366 1.18129 33.9232 1.25633 33.8977 1.31798C33.8735 1.37292 33.8359 1.41714 33.7796 1.45333C33.7178 1.49219 33.6494 1.51899 33.5756 1.53239L33.2481 1.55115H32.7449V0.747102H33.2012H33.2025ZM33.3756 2.14213L33.7541 2.15955C33.848 2.17027 33.9285 2.19171 33.9916 2.22387C34.0842 2.27078 34.1459 2.32706 34.1782 2.3887C34.213 2.45571 34.2305 2.55219 34.2305 2.67414C34.2305 2.78001 34.2144 2.86443 34.1808 2.92474C34.1486 2.98772 34.0949 3.044 34.0198 3.09493C33.9514 3.14183 33.8561 3.17533 33.742 3.19275L33.2602 3.22358H32.7449V2.14213H33.3729H33.3756Z" fill="#949494"/>
<path d="M35.6382 1.35794C35.3913 1.62462 35.2651 1.98778 35.2651 2.43403C35.2651 2.88028 35.3967 3.24612 35.657 3.49672C35.916 3.74597 36.2784 3.87328 36.7333 3.87328C36.9078 3.87328 37.0782 3.8505 37.2419 3.80628L37.7693 3.62536L37.764 3.5597V2.86822L37.5815 3.01161C37.5157 3.07191 37.3963 3.13489 37.2299 3.19922C37.0648 3.26488 36.897 3.29838 36.7347 3.29838C36.6125 3.29838 36.4998 3.28096 36.4005 3.24746C36.3039 3.2153 36.2193 3.16572 36.1495 3.10139C36.0771 3.03573 36.0194 2.94996 35.9764 2.84544C35.9442 2.76637 35.9361 2.66453 35.9281 2.56402H37.8177V2.229C37.8177 1.82697 37.713 1.51071 37.5063 1.28826C37.2983 1.06313 37.0017 0.949219 36.6259 0.949219C36.2207 0.949219 35.8892 1.08591 35.6396 1.35526L35.6382 1.35794ZM36.6045 1.49999C36.8098 1.49999 36.9547 1.55226 37.05 1.65812C37.1292 1.74791 37.1695 1.88058 37.1856 2.03737H35.9375C35.9684 1.90068 36.0207 1.77873 36.1187 1.6809C36.2394 1.55896 36.3978 1.49999 36.6058 1.49999H36.6045Z" fill="#949494"/>
<path d="M38.972 1.02085C38.8258 1.06641 38.7023 1.13207 38.607 1.21248C38.5064 1.29422 38.4299 1.39205 38.3802 1.49926C38.3305 1.6078 38.305 1.72305 38.305 1.84232C38.305 2.03529 38.3601 2.20146 38.4688 2.33547C38.5761 2.46948 38.756 2.56998 39.0029 2.63431L39.2834 2.69595L39.5209 2.74285C39.7195 2.78708 39.792 2.83398 39.8175 2.85676C39.8551 2.89026 39.8739 2.94387 39.8739 3.02025C39.8739 3.12076 39.8376 3.19044 39.7585 3.236C39.6645 3.28961 39.5303 3.31641 39.3572 3.31641C39.2149 3.31641 39.0633 3.28693 38.9063 3.22796C38.7479 3.169 38.6016 3.08859 38.4728 2.98943L38.3185 2.87016L38.2957 3.06447V3.62195L38.348 3.64071L38.7694 3.79884C38.9371 3.84708 39.1237 3.8712 39.325 3.8712C39.6833 3.8712 39.9745 3.78812 40.1866 3.62195C40.4067 3.45176 40.518 3.2293 40.518 2.96129C40.518 2.74687 40.4536 2.56998 40.3275 2.43731C40.204 2.31001 40.0309 2.22022 39.8095 2.17064L39.2914 2.06343C39.1599 2.03261 39.0687 1.99375 39.015 1.95086C38.9707 1.91334 38.9492 1.8584 38.9492 1.78067C38.9492 1.69089 38.9855 1.63192 39.066 1.58502C39.1613 1.53008 39.2807 1.50328 39.4243 1.50328C39.5679 1.50328 39.7115 1.53008 39.8605 1.58502C40.0108 1.6413 40.1396 1.70831 40.2416 1.78603L40.3959 1.90262L40.4201 1.70965V1.18032L40.3677 1.15351C40.2563 1.09589 40.1154 1.04631 39.9477 1.0061C39.784 0.967242 39.6162 0.945801 39.4538 0.945801C39.2767 0.945801 39.1143 0.969922 38.9734 1.01414L38.972 1.02085Z" fill="#949494"/>
<path d="M41.6465 0.277832H41.1151V1.02426H40.8198V1.58039H41.1151V2.87357C41.1151 3.21529 41.1942 3.46991 41.3513 3.63072C41.5096 3.79287 41.7378 3.87462 42.0303 3.87462L42.3054 3.85317L42.6651 3.78349L42.6597 3.70577V3.19117L42.5081 3.2287L42.347 3.27426L42.1444 3.3024C42.0089 3.3024 41.9404 3.28364 41.9055 3.26756C41.8639 3.24746 41.8304 3.21529 41.8062 3.17107C41.7753 3.11345 41.7566 3.05448 41.7512 2.9915L41.7431 2.67658V1.57905H42.6597V1.02292H41.7431V0.277832H41.6465Z" fill="#949494"/>
<path d="M45.5869 0.207023C45.3668 0.292788 45.1749 0.416076 45.0179 0.576886C44.8569 0.741716 44.7321 0.946748 44.6462 1.18528C44.563 1.42114 44.52 1.69183 44.52 1.98799C44.52 2.30023 44.5643 2.57897 44.6515 2.81884C44.7401 3.05872 44.8649 3.26107 45.0233 3.41786C45.183 3.57733 45.3762 3.69794 45.5963 3.77432C45.8124 3.84803 46.0539 3.88555 46.3143 3.88555L46.6995 3.85205L47.0189 3.77432L47.302 3.66712L47.5892 3.53713V3.47415L47.5906 2.83895H47.4255L47.3987 2.86307C47.2376 3.00512 47.0645 3.115 46.882 3.18469C46.6995 3.25571 46.4995 3.29189 46.2915 3.29189C46.1439 3.29189 46.0003 3.26643 45.8661 3.21551C45.7345 3.16593 45.6191 3.08686 45.5212 2.98234C45.4259 2.88317 45.3467 2.74916 45.2863 2.58433C45.2259 2.42084 45.1951 2.21983 45.1951 1.98799C45.1951 1.75616 45.2219 1.56721 45.2783 1.3997C45.3319 1.23487 45.4111 1.09684 45.5077 0.990971C45.6097 0.882425 45.7238 0.800679 45.85 0.749756C45.9788 0.697493 46.1264 0.672031 46.2888 0.672031C46.4901 0.672031 46.6807 0.705534 46.8592 0.773878C47.0363 0.842222 47.2188 0.952109 47.4 1.10354L47.4268 1.12632H47.5933V0.424116L47.5396 0.397314C47.3061 0.280727 47.0913 0.197642 46.9008 0.150739C46.7062 0.103836 46.5116 0.0810547 46.3197 0.0810547C46.0553 0.0810547 45.8097 0.122597 45.5896 0.205682L45.5869 0.207023Z" fill="#949494"/>
<path d="M48.9962 1.12126C48.8982 1.16415 48.7855 1.23383 48.6674 1.31692V1.02478H48.0393V3.81349H48.6674V1.92799C48.768 1.85161 48.8714 1.78192 48.9774 1.731C49.0915 1.6774 49.2109 1.6506 49.3317 1.6506L49.5397 1.65998L49.7209 1.69214L49.8336 1.71224L49.8618 1.59967V1.06498L49.6229 1.03014L49.4457 1.02344C49.2941 1.02344 49.1438 1.0556 48.9989 1.11858L48.9962 1.12126Z" fill="#949494"/>
<path d="M50.4356 1.35794C50.1886 1.62462 50.0625 1.98778 50.0625 2.43403C50.0625 2.88028 50.194 3.24612 50.4544 3.49672C50.7147 3.74597 51.0771 3.87328 51.5307 3.87328C51.7051 3.87328 51.8756 3.8505 52.0393 3.80628L52.5667 3.62536L52.5613 3.5597V2.86822L52.3788 3.01161C52.3131 3.07191 52.195 3.13489 52.0272 3.19922C51.8622 3.26488 51.6944 3.29838 51.5307 3.29838C51.4085 3.29838 51.2972 3.28096 51.1978 3.24746C51.1012 3.2153 51.0153 3.16572 50.9469 3.10139C50.8731 3.03439 50.814 2.94996 50.7738 2.84544C50.7416 2.76771 50.7335 2.66587 50.7241 2.56402H52.615V2.229C52.615 1.82697 52.5103 1.51071 52.3037 1.28826C52.097 1.06313 51.8004 0.949219 51.4233 0.949219C51.018 0.949219 50.6852 1.08591 50.4356 1.35526V1.35794ZM51.4032 1.49999C51.6072 1.49999 51.7521 1.55226 51.8474 1.65812C51.9266 1.74791 51.9668 1.88058 51.9829 2.03737H50.7335C50.7644 1.90068 50.8167 1.77873 50.9147 1.6809C51.0355 1.55896 51.1938 1.49999 51.4018 1.49999H51.4032Z" fill="#949494"/>
<path d="M55.4585 0.00195312H54.9257V1.08608C54.8224 1.04454 54.711 1.00032 54.711 1.00032C54.5983 0.969493 54.4667 0.953412 54.3205 0.953412C54.1567 0.953412 53.9957 0.986914 53.8427 1.05392C53.6884 1.1236 53.5528 1.22143 53.4388 1.3474C53.3233 1.47738 53.2307 1.63551 53.165 1.81777C53.0979 1.99868 53.063 2.20773 53.063 2.43822C53.063 2.88045 53.1623 3.23289 53.3582 3.48751C53.5595 3.75017 53.836 3.88283 54.1782 3.88283C54.35 3.88283 54.5151 3.84933 54.664 3.78501C54.7553 3.74481 54.8398 3.6778 54.9257 3.6175V3.81315H55.5538V0.00195312H55.4585ZM53.8521 3.07878C53.7568 2.93674 53.7085 2.7183 53.7085 2.43286C53.7085 2.14743 53.7702 1.92497 53.8937 1.7722C54.0145 1.62613 54.1782 1.55377 54.3956 1.55377L54.6828 1.58191C54.6828 1.58191 54.8385 1.63551 54.9257 1.665V3.02384C54.8331 3.09218 54.7338 3.15517 54.6251 3.20207C54.5124 3.25031 54.3956 3.27444 54.2829 3.27444C54.0802 3.27444 53.9393 3.21145 53.8521 3.07878Z" fill="#949494"/>
<path d="M56.828 0.137207H56.2429V0.781787H56.9247V0.137207H56.8294H56.828ZM56.7999 1.02568H56.2684V3.8144H56.8951V1.02568H56.7985H56.7999Z" fill="#949494"/>
<path d="M58.1946 0.277832H57.6632V1.02426H57.3679V1.58039H57.6632V2.87357C57.6632 3.21529 57.7423 3.47125 57.898 3.63072C58.055 3.79287 58.2832 3.87462 58.5784 3.87462L58.8535 3.85317L59.2132 3.78349L59.2078 3.70577V3.19117L59.0535 3.2287L58.8938 3.27426L58.6898 3.3024C58.5529 3.3024 58.4845 3.28364 58.4523 3.26756C58.4107 3.24746 58.3758 3.21529 58.353 3.17107C58.3208 3.11345 58.3033 3.05448 58.2979 2.9915L58.2885 2.67658V1.57905H59.2078V1.02292H58.2885V0.277832H58.1933H58.1946Z" fill="#949494"/>
<path d="M61.3023 0.154785H61.207V3.81589H61.8606V2.52673H62.227C62.4833 2.52673 62.702 2.49457 62.8765 2.43159C63.0537 2.36726 63.208 2.2681 63.3368 2.13945C63.4428 2.03358 63.5247 1.90895 63.5824 1.76557C63.6401 1.62352 63.671 1.46673 63.671 1.3019C63.671 1.0848 63.6307 0.901211 63.5502 0.753802C63.4697 0.607733 63.357 0.485786 63.212 0.3893C63.0899 0.307555 62.9503 0.248591 62.796 0.212409C62.6443 0.174886 62.4591 0.156125 62.2444 0.156125H61.3023V0.154785ZM62.2229 0.747102L62.5638 0.776584C62.647 0.795345 62.7235 0.824827 62.7879 0.866369C62.8591 0.911932 62.9101 0.969556 62.9436 1.04192C62.9798 1.11696 62.9986 1.20809 62.9986 1.31262C62.9986 1.4024 62.9852 1.48415 62.9584 1.55517C62.9329 1.62352 62.8886 1.69052 62.8242 1.75484C62.7638 1.81381 62.6819 1.85937 62.5813 1.88885C62.4726 1.91967 62.329 1.93442 62.1532 1.93442H61.8606V0.747102H62.2216H62.2229Z" fill="#949494"/>
<path d="M64.612 0.997472L64.1571 1.09128L64.1638 1.16766V1.73854L64.3168 1.69968L64.7395 1.57103L65.1019 1.52815L65.3609 1.54691L65.5488 1.60721C65.5998 1.63535 65.636 1.67421 65.6642 1.72246C65.687 1.76936 65.6977 1.83368 65.7004 1.90471C65.5568 1.91543 65.075 1.95429 65.075 1.95429C64.8456 1.98109 64.6443 2.03068 64.4778 2.10304C64.3047 2.18077 64.1692 2.28931 64.0766 2.426C63.9813 2.56269 63.9316 2.74226 63.9316 2.95935C63.9316 3.22737 64.0242 3.45117 64.2068 3.62404C64.3866 3.79557 64.6094 3.88401 64.8684 3.88401L65.224 3.84515L65.4938 3.74866L65.6991 3.62672C65.6991 3.62672 65.7031 3.62404 65.7045 3.6227V3.81433H66.3312V1.95027C66.3312 1.7707 66.303 1.61525 66.2466 1.48928C66.1889 1.3593 66.1017 1.25343 65.993 1.17302C65.8816 1.09262 65.7514 1.03499 65.6038 1.00149C65.4642 0.970671 65.2951 0.95459 65.1046 0.95459L64.6107 0.998813L64.612 0.997472ZM64.6778 3.19253C64.6094 3.13625 64.5772 3.04914 64.5772 2.92853C64.5772 2.82267 64.6067 2.74226 64.663 2.68598C64.7288 2.62299 64.8174 2.57475 64.9274 2.54259L65.3367 2.47826C65.3367 2.47826 65.5662 2.46084 65.7031 2.45012V3.01966C65.6454 3.0545 65.4052 3.20191 65.4052 3.20191C65.2911 3.25551 65.1623 3.28231 65.0254 3.28231C64.8643 3.28231 64.7476 3.25149 64.6765 3.19119L64.6778 3.19253Z" fill="#949494"/>
<path d="M67.8605 1.12126C67.7626 1.16415 67.6498 1.23383 67.5304 1.31692V1.02478H66.9023V3.81349H67.5304V1.92799C67.6311 1.85027 67.7357 1.78192 67.8418 1.731C67.9558 1.6774 68.0739 1.6506 68.1947 1.6506L68.4027 1.65998L68.6966 1.71224L68.7235 1.59967V1.06498L68.4846 1.03014L68.3074 1.02344C68.1558 1.02344 68.0055 1.0556 67.8605 1.11858V1.12126Z" fill="#949494"/>
<path d="M69.8384 0.277832H69.3056V1.02426H69.0117V1.58039H69.3056V2.87357C69.3056 3.21529 69.3848 3.46991 69.5418 3.63072C69.6988 3.79287 69.9283 3.87462 70.2209 3.87462L70.4973 3.85317L70.8557 3.78349L70.8503 3.70577V3.19117L70.6986 3.2287L70.5363 3.27426L70.3336 3.3024C70.1981 3.3024 70.1296 3.28364 70.0961 3.26756C70.0545 3.24746 70.0209 3.21529 69.9968 3.17107C69.9646 3.11479 69.9471 3.05582 69.9417 2.9915L69.9324 2.67658V1.57905H70.8503V1.02292H69.9324V0.277832H69.8371H69.8384Z" fill="#949494"/>
<path d="M72.3379 1.05644C72.2372 1.10066 72.1419 1.17302 72.0466 1.23735V1.02427H71.4199V3.81299H72.0466V1.83368C72.15 1.75998 72.256 1.69164 72.3687 1.64205C72.4868 1.58845 72.6009 1.56165 72.7069 1.56165C72.8129 1.56165 72.8935 1.57505 72.9552 1.60185C73.0116 1.62597 73.0518 1.66081 73.08 1.70906C73.1122 1.75864 73.1323 1.82698 73.1444 1.91811L73.1659 2.24107V3.81433H73.794V2.03336C73.794 1.69298 73.7108 1.4263 73.547 1.24003C73.3806 1.05108 73.1391 0.95459 72.829 0.95459C72.6626 0.95459 72.4976 0.989432 72.3392 1.05778L72.3379 1.05644Z" fill="#949494"/>
<path d="M74.6103 1.36051C74.362 1.62853 74.2358 1.99035 74.2358 2.4366C74.2358 2.88284 74.3674 3.24735 74.6277 3.49928C74.8881 3.74854 75.2491 3.87585 75.704 3.87585C75.8785 3.87585 76.0489 3.85307 76.2126 3.80884L76.7401 3.62793L76.7347 3.56227V2.87212L76.5522 3.01417C76.4837 3.07448 76.367 3.13746 76.2006 3.20312C76.0355 3.26879 75.8677 3.30229 75.7054 3.30229C75.5832 3.30229 75.4705 3.28487 75.3698 3.25137C75.2732 3.21921 75.1887 3.16962 75.1189 3.1053C75.0464 3.03829 74.9887 2.95387 74.9471 2.84934C74.9149 2.77028 74.9055 2.66843 74.8988 2.56793H76.7884V2.2329C76.7884 1.83088 76.6837 1.51462 76.477 1.29217C76.2703 1.06703 75.9724 0.953125 75.5967 0.953125C75.1914 0.953125 74.8585 1.08981 74.6103 1.35917V1.36051ZM75.5765 1.50256C75.7819 1.50256 75.9268 1.55482 76.0221 1.66069C76.1026 1.75047 76.1415 1.88314 76.1563 2.03993H74.9082C74.9377 1.90324 74.9914 1.78264 75.0894 1.68347C75.2102 1.56152 75.3685 1.50256 75.5765 1.50256Z" fill="#949494"/>
<path d="M78.1793 1.12126C78.08 1.16415 77.9686 1.23383 77.8505 1.31692V1.02478H77.2224V3.81349H77.8505V1.92799C77.9511 1.85161 78.0545 1.78192 78.1605 1.731C78.2732 1.67874 78.3927 1.6506 78.5134 1.6506L78.7228 1.65998L78.9026 1.69214L79.0154 1.71224L79.0435 1.59967V1.06498L78.8047 1.03014L78.6275 1.02344C78.4745 1.02344 78.3256 1.0556 78.1793 1.11858V1.12126Z" fill="#949494"/>
<path d="M43.5335 6.63086H41.6829V17.1827H43.5335V6.63086Z" fill="#949494"/>
<path d="M35.4677 12.6887H37.3895V15.4828L37.3613 15.4975C36.8782 15.7521 35.8529 15.9156 35.2571 15.9183C35.2517 15.9183 35.249 15.9183 35.249 15.9183C32.985 15.9196 31.7987 14.0918 31.7946 11.8525V11.8471C31.7973 9.15758 33.6587 7.89656 35.9522 7.89522C36.8728 7.89522 37.9035 8.05737 38.8443 8.35487V6.98263C37.874 6.65833 36.6648 6.47741 35.5603 6.47607C31.7383 6.48009 29.5454 8.78236 29.54 11.9208C29.5414 15.1022 31.7477 17.3348 35.0141 17.3361C36.4434 17.3361 38.078 17.0828 39.2375 16.8081V11.5148H35.4691V12.6887H35.4677Z" fill="#949494"/>
<path d="M24.8568 10.8651C23.1256 10.2514 21.895 9.92439 21.895 9.09756C21.895 8.27073 23.3041 7.8821 24.4837 7.8821C25.4312 7.8821 26.6417 8.1126 27.4442 8.32433V6.9092C26.4404 6.65325 25.2863 6.49512 24.1818 6.49512C21.6896 6.49512 19.6189 7.54976 19.6189 9.46608C19.6189 10.9335 20.8858 11.6008 23.0035 12.3151C24.7562 12.9088 26.2163 13.3242 26.2163 14.348C26.2163 15.2928 24.7723 15.9025 23.3591 15.9025C22.1929 15.9025 20.7435 15.5514 19.9007 15.2619V16.8379C20.9972 17.1005 22.5016 17.3203 23.7926 17.3203C26.6471 17.3203 28.4226 15.8489 28.4226 14.0438C28.4226 12.2387 27.0322 11.6343 24.8555 10.8638L24.8568 10.8651Z" fill="#949494"/>
<path d="M55.9667 17.1861V6.63428H54.3066V9.08931L52.0627 9.08797V10.2538H54.3066V17.1861H55.9667Z" fill="#949494"/>
<path d="M48.0569 11.5051C47.861 11.824 47.6167 12.1657 47.2531 12.4364C46.8733 12.7219 46.5378 12.947 45.7312 13.0569V14.2563C46.0197 14.2348 47.5443 14.0888 48.5307 13.1266C48.8688 12.7983 49.1158 12.4552 49.3104 12.1336L49.3493 12.0693L49.3895 12.1336C49.5841 12.4552 49.8311 12.7983 50.1693 13.1266C51.1556 14.0901 52.6788 14.2389 52.9687 14.259V13.0582C52.1622 12.9484 51.8267 12.7232 51.4455 12.4378C51.0832 12.1657 50.8389 11.8254 50.643 11.5064C50.4457 11.1848 50.3035 10.8484 50.2189 10.4987C50.133 10.1476 50.0914 9.78442 50.0914 9.40651V6.73975H48.6072V9.40651C48.6072 9.78442 48.5655 10.1476 48.481 10.4987C48.3965 10.8484 48.2542 11.1848 48.0556 11.5064L48.0569 11.5051Z" fill="#949494"/>
<path d="M89.9994 11.6123H80.2617V12.7782H89.9994V11.6123Z" fill="#949494"/>
<path d="M85.1021 9.57804L85.1316 9.55124L85.1611 9.57804C86.4146 10.7372 88.8651 10.8082 89.3871 10.8069H89.4408V9.77771C88.5403 9.66649 86.4991 9.49898 85.8845 7.97664L85.8549 7.90428H89.4663V6.73975H80.7942V7.90428H84.4056L84.3774 7.97664C83.7627 9.49898 81.7188 9.66649 80.8224 9.77771V10.8069H80.8761C81.3981 10.8096 83.8486 10.7372 85.1021 9.57804Z" fill="#949494"/>
<path d="M70.086 6.81006V12.0243C70.086 12.8619 70.5315 13.3054 71.4159 13.3054H73.3511V15.8757H69.3157V17.0416H79.052V15.8757H74.9575V13.3054H78.2079V6.81006H76.6042V9.13108H71.6924V6.81006H70.086ZM71.6924 10.2795H76.6015V12.1557H72.2265C72.036 12.1557 71.8977 12.1248 71.8078 12.0257C71.7179 11.9252 71.6911 11.7737 71.6911 11.5593V10.2795H71.6924Z" fill="#949494"/>
<path d="M67.6351 11.9892V10.8247H57.8987V11.9892H61.9368V12.5789H58.5026V13.7287H65.3711V14.3143H58.5026V15.905C58.5026 16.7425 58.9481 17.1847 59.8325 17.1847H67.0244V16.0363H60.4257C60.3304 16.0363 60.2633 16.0216 60.219 15.972C60.1748 15.9224 60.1627 15.8473 60.1627 15.7428V15.4641H67.0325V12.5789H63.5982V11.9892H67.6364H67.6351Z" fill="#949494"/>
<path d="M62.7737 6.02246C60.3084 6.02246 58.8604 7.02618 58.8604 8.2805C58.8604 9.53482 60.3084 10.5385 62.7737 10.5385C65.239 10.5385 66.6884 9.53482 66.6884 8.2805C66.6884 7.02618 65.2403 6.02246 62.7737 6.02246ZM62.7737 9.46514C61.3471 9.46514 60.5097 8.9358 60.5097 8.2805C60.5097 7.6252 61.3471 7.09587 62.7737 7.09587C64.2003 7.09587 65.0377 7.6252 65.0377 8.2805C65.0377 8.9358 64.2003 9.46514 62.7737 9.46514Z" fill="#949494"/>
<path d="M85.1313 13.3506C82.6661 13.3506 81.218 14.3838 81.218 15.677C81.218 16.9702 82.6661 18.002 85.1313 18.002C87.5966 18.002 89.046 16.9688 89.046 15.677C89.046 14.3851 87.598 13.3506 85.1313 13.3506ZM85.1313 16.9273C83.7061 16.9273 82.8687 16.3685 82.8687 15.6756C82.8687 14.9828 83.7061 14.4227 85.1313 14.4227C86.5566 14.4227 87.3953 14.9828 87.3953 15.6756C87.3953 16.3685 86.5579 16.9273 85.1313 16.9273Z" fill="#949494"/>
</g>
<defs>
<clipPath id="clip0_8492_621442">
<rect width="90" height="18" fill="white"/>
</clipPath>
</defs>
</svg>
